<?xml version="1.0" encoding="UTF-8" standalone="no"?>
<!-- Created with Inkscape (http://www.inkscape.org/) -->

<svg
   xmlns:dc="http://purl.org/dc/elements/1.1/"
   xmlns:cc="http://creativecommons.org/ns#"
   xmlns:rdf="http://www.w3.org/1999/02/22-rdf-syntax-ns#"
   xmlns:svg="http://www.w3.org/2000/svg"
   xmlns="http://www.w3.org/2000/svg"
   xmlns:sodipodi="http://sodipodi.sourceforge.net/DTD/sodipodi-0.dtd"
   xmlns:inkscape="http://www.inkscape.org/namespaces/inkscape"
   width="744.09448819"
   height="1052.3622047"
   id="svg2"
   version="1.1"
   inkscape:version="0.48+devel r10069"
   sodipodi:docname="rack-icon.svg"
   inkscape:export-filename="/Users/jeffw/Desktop/rack-icon.png"
   inkscape:export-xdpi="90.02"
   inkscape:export-ydpi="90.02">
  <defs
     id="defs4" />
  <sodipodi:namedview
     id="base"
     pagecolor="#ffffff"
     bordercolor="#666666"
     borderopacity="1.0"
     inkscape:pageopacity="0.0"
     inkscape:pageshadow="2"
     inkscape:zoom="19.5214"
     inkscape:cx="323.592"
     inkscape:cy="538.687"
     inkscape:document-units="px"
     inkscape:current-layer="g3080"
     showgrid="false"
     inkscape:window-width="1440"
     inkscape:window-height="852"
     inkscape:window-x="0"
     inkscape:window-y="0"
     inkscape:window-maximized="0" />
  <metadata
     id="metadata7">
    <rdf:RDF>
      <cc:Work
         rdf:about="">
        <dc:format>image/svg+xml</dc:format>
        <dc:type
           rdf:resource="http://purl.org/dc/dcmitype/StillImage" />
        <dc:title></dc:title>
      </cc:Work>
    </rdf:RDF>
  </metadata>
  <g
     inkscape:label="Layer 1"
     inkscape:groupmode="layer"
     id="layer1">
    <g
       id="g3080"
       transform="translate(-84.1325,4.20662)">
      <path
         style="fill:#000000"
         d="m 420.893,525.202 -0.384,-0.04 0,-6.683 c 0,-3.676 -0.04,-6.711 -0.08,-6.745 -0.07,-0.06 -11.837,0.137 -16.687,0.273 l -1.949,0.06 0.03,5.189 0.03,5.19 -0.735,0 c -0.704,0 -0.732,-0 -0.681,-0.192 0.07,-0.236 0.06,-1.873 -0.01,-1.925 -0.03,-0.02 -0.993,0.03 -2.147,0.118 l -2.099,0.155 0.04,1.266 0.04,1.267 -0.743,-0.02 -0.743,-0.03 0,-12.907 c 0,-7.099 0.03,-12.94 0.06,-12.98 0.243,-0.306 1.257,-0.124 1.257,0.225 0,0.117 0.07,0.234 0.154,0.259 0.09,0.03 2.517,-0.32 5.406,-0.767 6.061,-0.937 10.69,-1.631 13.429,-2.014 5.702,-0.797 5.598,-0.774 5.598,-1.238 0,-0.325 0.423,-0.499 0.997,-0.41 0.52,0.08 0.573,0.257 0.486,1.612 l -0.08,1.217 0.334,0.135 c 0.266,0.107 0.444,0.118 0.862,0.05 0.29,-0.04 0.885,-0.125 1.323,-0.179 l 0.795,-0.1 0,-0.471 0,-0.471 0.385,0.06 c 0.252,0.04 0.384,0.02 0.384,-0.04 0,-0.05 0.133,-0.08 0.302,-0.07 l 0.302,0.03 -0.03,7.632 c -0.01,4.197 -0.05,10.759 -0.08,14.582 l -0.05,6.95 -0.791,-0.02 c -0.908,-0.03 -0.939,-0.04 -0.774,-0.297 0.07,-0.106 0.139,-0.68 0.16,-1.276 0.04,-1.056 0.03,-1.084 -0.186,-1.045 -0.603,0.108 -2.809,0.466 -2.872,0.466 -0.176,0 0.08,2.762 0.27,2.869 0.395,0.226 -0.501,0.413 -1.519,0.315 z m 0.905,-0.16 c 0.127,-0.04 0.148,-0.338 0.117,-1.705 -0.02,-1.083 0,-1.66 0.07,-1.66 0.06,0 0.111,0.03 0.111,0.07 0,0.06 3.058,-0.386 3.174,-0.467 0.19,-0.133 -0.308,-0.106 -1.635,0.09 -0.849,0.125 -1.592,0.204 -1.652,0.176 -0.178,-0.09 -0.14,-5.09 0.04,-5.282 0.135,-0.144 0.175,-0.119 0.494,0.314 0.371,0.504 0.421,0.623 0.219,0.527 -0.08,-0.04 -0.1,-0.02 -0.05,0.04 0.04,0.06 0.123,0.08 0.176,0.05 0.05,-0.02 0.149,0.03 0.212,0.121 0.15,0.218 0.146,0.289 -0.01,0.213 -0.08,-0.04 -0.1,-0.02 -0.05,0.04 0.04,0.05 0.123,0.08 0.176,0.05 0.05,-0.03 0.149,0.03 0.212,0.121 0.15,0.217 0.146,0.288 -0.01,0.213 -0.08,-0.04 -0.1,-0.02 -0.05,0.04 0.04,0.05 0.123,0.08 0.176,0.05 0.05,-0.03 0.148,0.03 0.212,0.121 0.15,0.217 0.146,0.289 -0.01,0.213 -0.08,-0.04 -0.1,-0.02 -0.05,0.04 0.04,0.06 0.121,0.08 0.171,0.06 0.05,-0.02 0.319,0.256 0.596,0.624 0.521,0.69 0.596,0.835 0.378,0.731 -0.08,-0.04 -0.1,-0.02 -0.05,0.04 0.04,0.05 0.122,0.08 0.174,0.05 0.125,-0.06 0.912,1.033 0.844,1.172 -0.03,0.07 -0.09,0.04 -0.146,-0.08 -0.06,-0.118 -0.103,0.379 -0.116,1.343 -0.02,1.465 -0.01,1.529 0.192,1.529 0.237,0 0.241,-0.01 0.261,-0.953 0,-0.4 -0.03,-0.649 -0.1,-0.639 -0.06,0 -0.129,-0.08 -0.151,-0.189 -0.03,-0.155 0,-0.192 0.129,-0.154 0.104,0.03 0.15,0.01 0.12,-0.05 -0.03,-0.06 -0,-0.217 0.05,-0.358 0.07,-0.18 0.103,0.137 0.109,1.078 0,0.983 0.05,1.345 0.147,1.375 0.109,0.03 0.143,-1.76 0.166,-8.753 0.02,-4.836 0.06,-11.294 0.09,-14.351 0.04,-3.057 0.03,-5.598 -0,-5.647 -0.04,-0.05 -0.152,-0.02 -0.286,0.08 -0.232,0.181 -0.296,0.387 -0.09,0.287 0.08,-0.04 0.1,-0.02 0.05,0.04 -0.121,0.152 -0.285,0.116 -0.285,-0.06 0,-0.09 -0.07,-0.183 -0.165,-0.21 -0.132,-0.04 -0.164,0.03 -0.164,0.365 0,0.482 0.133,0.434 -1.787,0.655 -1.868,0.214 -1.884,0.203 -1.906,-1.341 -0.02,-1.599 -0,-1.499 -0.322,-1.562 -0.478,-0.09 -0.705,0.01 -0.705,0.331 0,0.476 0.284,0.415 -6.366,1.366 -4.673,0.668 -7.711,1.125 -13.863,2.081 -2.63,0.409 -4.757,0.714 -4.727,0.676 0.03,-0.04 -0.04,-0.07 -0.145,-0.07 -0.115,-0 -0.141,-0.03 -0.06,-0.05 0.405,-0.127 0,-0.65 -0.427,-0.562 -0.251,0.05 -0.297,0.738 -0.06,0.849 0.178,0.08 0.333,0.622 0.179,0.622 -0.06,0 -0.107,-0.113 -0.107,-0.251 0,-0.387 -0.228,-0.419 -0.239,-0.03 -0.04,1.308 -0.05,24.022 -0,24.233 0.05,0.247 0.08,0.269 0.458,0.269 l 0.407,0 -0.04,-1.087 c -0.02,-0.598 -0.06,-1.172 -0.07,-1.277 -0.02,-0.104 -0,-0.174 0.03,-0.157 0.06,0.03 0.05,-1.501 -0.02,-3.767 -0.02,-0.599 0.01,-0.885 0.1,-0.911 0.113,-0.03 1.812,1.398 4.038,3.401 0.42,0.377 0.786,0.676 0.814,0.665 0.03,-0.01 0.05,0.515 0.04,1.172 -0,0.674 0.04,1.194 0.09,1.194 0.06,0 0.101,-0.04 0.101,-0.08 0,-0.05 0.05,-0.09 0.11,-0.09 0.06,0 0.11,0.06 0.11,0.128 0,0.07 0.07,0.128 0.164,0.128 0.145,0 0.165,-0.634 0.165,-5.193 l 0,-5.194 1.125,-0.05 c 0.619,-0.03 4.459,-0.108 8.534,-0.179 4.075,-0.07 7.853,-0.14 8.396,-0.152 l 0.988,-0.02 0.104,0.362 c 0.06,0.199 0.134,0.363 0.171,0.363 0.04,0 0.06,0.112 0.05,0.25 -0.01,0.148 0.04,0.268 0.131,0.296 0.221,0.07 0.193,0.536 -0.04,0.641 -0.183,0.08 -0.183,0.09 0,0.09 0.106,0 0.196,0.05 0.201,0.109 0.06,0.637 0.02,1.594 -0.06,1.578 -0.144,-0.03 -0.297,0.47 -0.174,0.565 0.06,0.05 0.06,0.137 0,0.224 -0.141,0.205 -0.195,8.611 -0.05,8.619 0.06,0 0.01,0.04 -0.11,0.08 -0.22,0.07 -0.22,0.07 0,0.09 0.121,0 0.158,0.03 0.08,0.06 -0.264,0.08 -0.133,0.189 0.274,0.222 0.227,0.02 0.42,0.04 0.431,0.05 0,0 0.09,-0 0.172,-0.03 z m -0.542,-0.179 c -0.07,-0.02 -0.104,-0.1 -0.07,-0.164 0.09,-0.176 0.207,-0.151 0.226,0.05 0,0.09 0,0.168 -0,0.164 -0.01,-0 -0.08,-0.02 -0.152,-0.05 z m 0.256,-0.414 c -0.03,-0.07 -0.01,-0.128 0.04,-0.128 0.06,0 0.107,0.06 0.107,0.128 0,0.07 -0.02,0.128 -0.04,0.128 -0.02,0 -0.07,-0.06 -0.107,-0.128 z m -0.289,-0.572 c 0,-0.1 0.04,-0.147 0.08,-0.104 0.05,0.04 0.123,0.101 0.174,0.13 0.05,0.03 0.01,0.08 -0.08,0.105 -0.126,0.04 -0.174,10e-4 -0.174,-0.131 z m 0,-0.833 c 0,-0.114 0.05,-0.152 0.164,-0.119 0.09,0.03 0.165,0.103 0.165,0.168 0,0.07 -0.07,0.119 -0.165,0.119 -0.09,0 -0.164,-0.08 -0.164,-0.168 z m 4.5,-0.173 c 0,-0.09 0.04,-0.171 0.09,-0.171 0.05,0 0.09,0.08 0.103,0.171 0,0.09 -0.03,0.171 -0.09,0.171 -0.06,0 -0.103,-0.08 -0.103,-0.171 z m -4.15,-0.213 c 0,-0.141 0.03,-0.188 0.06,-0.105 0.03,0.08 0.03,0.198 -0,0.256 -0.03,0.06 -0.05,-0.01 -0.05,-0.151 z m -0,-0.554 c 0,-0.118 0.02,-0.166 0.06,-0.107 0.03,0.06 0.03,0.154 0,0.213 -0.03,0.06 -0.06,0.01 -0.06,-0.106 z m 4.483,-0.981 c 0,-0.07 0.02,-0.128 0.04,-0.128 0.02,0 0.07,0.06 0.107,0.128 0.03,0.07 0.01,0.128 -0.04,0.128 -0.06,0 -0.107,-0.06 -0.107,-0.128 z m -0.378,-0.659 c -0.09,-0.104 -0.171,-0.253 -0.171,-0.33 0,-0.08 -0.09,-0.194 -0.212,-0.259 -0.117,-0.06 -0.529,-0.539 -0.914,-1.055 -0.386,-0.515 -1.105,-1.467 -1.599,-2.114 -0.875,-1.146 -1.099,-1.658 -0.792,-1.806 0.06,-0.03 0.08,-0.104 0.05,-0.169 -0.08,-0.152 0.156,-0.493 0.292,-0.428 0.06,0.03 0.07,-0.01 0.03,-0.1 -0.05,-0.1 -0.03,-0.126 0.05,-0.09 0.07,0.03 0.179,-0.02 0.249,-0.125 0.1,-0.142 0.1,-0.168 -0,-0.118 -0.09,0.04 -0.117,0.02 -0.08,-0.05 0.03,-0.07 0.113,-0.118 0.188,-0.118 0.183,0 0.441,-0.386 0.363,-0.543 -0.04,-0.08 -0.02,-0.103 0.07,-0.06 0.09,0.04 0.103,0.01 0.05,-0.09 -0.05,-0.1 -0.03,-0.126 0.05,-0.09 0.07,0.03 0.179,-0.02 0.249,-0.124 0.1,-0.145 0.1,-0.17 -0.01,-0.117 -0.1,0.05 -0.119,0.03 -0.07,-0.07 0.148,-0.3 -0.03,-0.112 -0.64,0.669 -0.883,1.134 -0.942,1.102 -0.905,-0.491 l 0.03,-1.3 0.968,-0.08 c 1.238,-0.1 1.339,-0.04 0.923,0.539 -0.242,0.335 -0.266,0.412 -0.123,0.396 0.1,-0.01 0.228,-0.09 0.289,-0.175 0.08,-0.117 0.08,-0.139 -0.03,-0.09 -0.09,0.04 -0.12,0.03 -0.09,-0.05 0.03,-0.07 0.113,-0.119 0.188,-0.119 0.138,0 0.441,-0.352 0.441,-0.511 0,-0.05 -0.07,0.01 -0.157,0.127 -0.09,0.118 -0.159,0.17 -0.161,0.116 -0,-0.05 0.1,-0.187 0.224,-0.298 0.125,-0.111 0.198,-0.156 0.162,-0.1 -0.04,0.07 0.08,0.11 0.403,0.128 l 0.469,0.03 0.08,0.554 c 0.04,0.305 0.08,2.243 0.08,4.306 0,3.3 0.02,3.786 0.179,4.029 0.216,0.333 0.273,0.347 0.273,0.06 0,-0.137 -0.06,-0.213 -0.172,-0.213 -0.108,0 -0.157,-0.06 -0.131,-0.149 0.02,-0.08 0.101,-0.14 0.172,-0.128 0.07,0.01 0.131,-0.07 0.131,-0.192 0,-0.132 -0.06,-0.213 -0.164,-0.213 -0.09,0 -0.165,-0.08 -0.165,-0.171 0,-0.09 0.07,-0.17 0.165,-0.17 0.09,0 0.169,-0.08 0.176,-0.192 0.04,-0.633 0.05,-1.194 0.01,-1.066 -0.05,0.171 -0.194,0.195 -0.309,0.05 -0.04,-0.05 0,-0.144 0.104,-0.201 0.1,-0.06 0.181,-0.152 0.181,-0.212 0,-0.06 -0.08,-0.156 -0.181,-0.212 -0.1,-0.06 -0.146,-0.148 -0.104,-0.202 0.115,-0.144 0.264,-0.119 0.307,0.05 0.02,0.08 0.04,-0.08 0.04,-0.362 0,-0.282 -0.02,-0.445 -0.04,-0.363 -0.05,0.18 -0.351,0.202 -0.351,0.03 0,-0.07 0.08,-0.159 0.181,-0.203 0.232,-0.1 0.263,-0.755 0.05,-1.065 -0.125,-0.181 -0.127,-0.247 -0.01,-0.354 0.08,-0.07 0.151,-0.39 0.164,-0.707 0.01,-0.316 0,-0.526 -0.02,-0.467 -0.06,0.14 -0.247,0.05 -0.247,-0.122 0,-0.08 0.06,-0.113 0.149,-0.09 0.112,0.03 0.15,-0.05 0.148,-0.311 0,-0.195 -0.02,-0.307 -0.05,-0.248 -0.08,0.172 -0.248,0.122 -0.248,-0.07 0,-0.124 0.05,-0.164 0.164,-0.13 0.142,0.04 0.165,-0.132 0.165,-1.267 0,-1.136 -0.02,-1.31 -0.165,-1.268 -0.114,0.03 -0.164,-0 -0.164,-0.13 0,-0.1 0.05,-0.18 0.116,-0.18 0.06,0 0.09,0.04 0.05,0.08 -0.04,0.05 0.01,0.09 0.109,0.09 0.159,0 0.174,0.458 0.16,4.941 -0,2.717 -0.05,4.963 -0.08,4.992 -0.04,0.03 -0.05,0.204 -0.04,0.389 0.04,0.392 -0.189,0.463 -0.473,0.148 z m -0.39,-4.884 0,-4.051 -0.256,0 c -0.218,0 -0.453,0.268 -1.592,1.816 -0.734,0.998 -1.335,1.872 -1.335,1.943 0,0.07 0.691,1.042 1.536,2.159 0.846,1.117 1.537,2.065 1.537,2.107 0,0.04 0.03,0.08 0.06,0.08 0.03,0 0.06,-1.823 0.06,-4.051 z m 0.843,3.693 c -0.04,-0.07 -0.06,-0.05 -0.07,0.05 -0,0.09 0.02,0.14 0.06,0.112 0.04,-0.03 0.04,-0.102 0,-0.164 z m 0,-4.349 c -0.04,-0.07 -0.06,-0.05 -0.07,0.05 -0,0.09 0.02,0.14 0.06,0.112 0.04,-0.03 0.04,-0.102 0,-0.164 z m -3.875,-0.372 c 0.04,-0.08 0.02,-0.11 -0.04,-0.08 -0.06,0.03 -0.108,0.09 -0.108,0.132 0,0.123 0.08,0.1 0.151,-0.05 z m 0.867,-2.085 0.605,-0.81 -0.663,-0.02 c -1.002,-0.04 -0.96,-0.09 -0.96,1.151 l 0,1.089 0.206,-0.297 c 0.114,-0.164 0.479,-0.662 0.812,-1.108 z m -22.071,7.888 c 0,-0.14 0.03,-0.188 0.06,-0.105 0.03,0.08 0.03,0.199 -0,0.256 -0.03,0.06 -0.05,-0.01 -0.05,-0.151 z m 20.183,-0.433 c 0,-0.1 0.03,-0.12 0.07,-0.05 0.03,0.06 0.03,0.136 -0,0.164 -0.04,0.03 -0.06,-0.02 -0.06,-0.112 z m -20.424,-0.547 c 0,-0.05 -0.09,-0.09 -0.192,-0.09 -0.107,-0 -1.018,-0.742 -2.058,-1.669 -1.026,-0.914 -2.051,-1.819 -2.277,-2.012 -0.227,-0.192 -0.412,-0.394 -0.412,-0.448 0,-0.05 0.819,-0.837 1.821,-1.74 1.001,-0.904 1.797,-1.661 1.769,-1.683 -0.03,-0.02 -0.557,0.432 -1.176,1.009 -1.773,1.652 -2.178,1.975 -2.339,1.871 -0.155,-0.1 -0.149,-2.807 0,-2.92 0.07,-0.05 4.092,-0.125 5.05,-0.09 0.33,0.01 0.356,0.03 0.341,0.29 -0.02,0.258 -0.02,0.261 -0.06,0.04 -0.03,-0.159 -0.111,-0.234 -0.25,-0.234 -0.196,0 -0.203,0.147 -0.184,3.88 0.01,2.134 0,3.88 -0,3.88 -0.01,0 -0.03,-0.04 -0.03,-0.09 z m -0.308,-6.502 -0.03,-1.088 -0.306,0 c -0.263,0 -0.57,0.24 -2.141,1.668 -1.009,0.918 -1.819,1.698 -1.8,1.734 0.02,0.04 0.973,0.895 2.12,1.908 l 2.085,1.841 0.06,-2.488 c 0.03,-1.369 0.04,-2.978 0.02,-3.575 z m -2.983,0.17 c 1.539,-1.395 1.559,-1.314 -0.303,-1.216 l -1.126,0.06 0,1.186 c 0,0.652 0.02,1.185 0.04,1.185 0.02,0 0.647,-0.547 1.385,-1.215 z m 28.207,5.522 c 0,-0.07 0.07,-0.128 0.165,-0.128 0.09,0 0.164,0.06 0.164,0.128 0,0.07 -0.07,0.128 -0.164,0.128 -0.09,0 -0.165,-0.06 -0.165,-0.128 z m 0.06,-2.772 c -0.08,-0.1 0.02,-0.256 0.171,-0.256 0.06,0 0.103,0.08 0.103,0.171 0,0.18 -0.16,0.229 -0.274,0.09 z m -4.336,-0.682 c 0,-0.159 0.03,-0.182 0.132,-0.102 0.102,0.08 0.102,0.125 0,0.204 -0.102,0.08 -0.132,0.06 -0.132,-0.102 z m 4.425,-1.002 c -0,-0.243 0.01,-0.279 0.08,-0.149 0.118,0.225 0.126,0.469 0.02,0.469 -0.05,0 -0.09,-0.144 -0.1,-0.32 z m -3.108,-0.502 c 0,-0.05 0.08,-0.158 0.171,-0.249 0.161,-0.156 0.163,-0.154 0.04,0.05 -0.16,0.262 -0.211,0.31 -0.211,0.202 z m -21.724,-0.166 c 0,-0.1 0.03,-0.12 0.07,-0.05 0.03,0.06 0.03,0.136 -0,0.164 -0.04,0.03 -0.06,-0.02 -0.06,-0.112 z m 20.261,-1.457 c -0.102,-0.08 -0.09,-0.284 0.01,-0.284 0.05,0 0.09,0.08 0.103,0.171 0.02,0.183 -0,0.202 -0.116,0.113 z m -26.016,-0.433 c 0.01,-0.176 -0.03,-0.369 -0.1,-0.429 -0.09,-0.08 -0.07,-0.1 0.06,-0.05 0.185,0.06 0.274,0.803 0.1,0.803 -0.05,0 -0.08,-0.144 -0.07,-0.32 z m 25.418,-0.376 c 0.06,-0.133 0.302,-0.156 0.311,-0.03 0,0.05 -0.08,0.1 -0.177,0.114 -0.115,0.02 -0.165,-0.01 -0.134,-0.08 z m 3.97,-0.2 c 0.04,-0.07 0.09,-0.176 0.123,-0.234 0.04,-0.08 -0.261,-0.101 -1.372,-0.08 -0.785,0.02 -1.43,0.02 -1.432,0 -0,-0.01 -0.03,-1.54 -0.07,-3.388 -0.06,-3.139 -0.06,-3.367 0.124,-3.469 0.106,-0.06 0.16,-0.15 0.12,-0.2 -0.04,-0.05 -0.05,-0.09 -0.01,-0.09 0.07,0 0.395,0.475 0.39,0.571 -0,0.04 -0.07,-0.03 -0.161,-0.145 -0.18,-0.244 -0.224,-0.16 -0.05,0.09 0.06,0.09 0.17,0.141 0.238,0.109 0.08,-0.04 0.1,-0 0.05,0.09 -0.09,0.187 0.115,0.501 0.279,0.422 0.08,-0.04 0.1,-0 0.05,0.09 -0.05,0.1 -0.03,0.127 0.06,0.09 0.08,-0.04 0.103,-0.01 0.05,0.08 -0.05,0.1 -0.03,0.126 0.05,0.08 0.09,-0.04 0.104,-0.01 0.06,0.09 -0.05,0.1 -0.03,0.126 0.06,0.08 0.09,-0.04 0.104,-0.01 0.06,0.09 -0.05,0.1 -0.03,0.127 0.05,0.08 0.09,-0.04 0.104,-0.01 0.06,0.09 -0.05,0.1 -0.03,0.126 0.06,0.08 0.09,-0.04 0.103,-0.01 0.06,0.09 -0.05,0.1 -0.03,0.127 0.06,0.09 0.08,-0.04 0.103,-0.01 0.05,0.09 -0.05,0.1 -0.03,0.126 0.06,0.08 0.09,-0.04 0.104,-0.01 0.06,0.09 -0.05,0.1 -0.03,0.127 0.06,0.09 0.09,-0.04 0.104,-0.01 0.06,0.09 -0.05,0.1 -0.03,0.126 0.06,0.08 0.09,-0.04 0.103,-0.01 0.06,0.08 -0.05,0.1 -0.03,0.127 0.06,0.09 0.08,-0.04 0.103,-0.01 0.05,0.09 -0.05,0.1 -0.03,0.126 0.06,0.08 0.09,-0.04 0.104,-0.01 0.06,0.09 -0.05,0.1 -0.03,0.126 0.06,0.08 0.09,-0.04 0.104,-0.01 0.06,0.08 -0.05,0.1 -0.03,0.126 0.05,0.09 0.09,-0.04 0.103,-0.01 0.06,0.09 -0.05,0.1 -0.03,0.126 0.06,0.08 0.09,-0.04 0.103,-0.01 0.05,0.08 -0.05,0.1 -0.03,0.127 0.06,0.09 0.09,-0.04 0.104,-0.01 0.05,0.09 -0.05,0.1 -0.03,0.126 0.06,0.09 0.09,-0.04 0.104,-0.01 0.06,0.08 -0.05,0.1 -0.03,0.126 0.05,0.09 0.07,-0.04 0.102,-0.01 0.07,0.06 -0.03,0.06 0.03,0.169 0.123,0.232 0.1,0.06 0.113,0.09 0.04,0.06 -0.09,-0.03 -0.113,-0 -0.07,0.08 0.04,0.07 0.118,0.106 0.183,0.07 0.07,-0.03 0.09,-0 0.04,0.09 -0.05,0.1 -0.03,0.127 0.06,0.09 0.09,-0.04 0.104,-0.01 0.06,0.08 -0.05,0.1 -0.03,0.126 0.05,0.08 0.09,-0.04 0.103,-0.01 0.06,0.09 -0.05,0.1 -0.03,0.126 0.05,0.08 0.09,-0.04 0.104,-0.01 0.06,0.09 -0.05,0.1 -0.03,0.127 0.06,0.08 0.09,-0.04 0.104,-0.01 0.05,0.09 -0.04,0.08 -0.03,0.126 0.02,0.102 0.05,-0.02 0.149,0.05 0.219,0.17 0.154,0.263 0.158,0.317 0.02,0.249 -0.06,-0.03 -0.1,0.03 -0.09,0.146 0.02,0.198 -0.418,0.749 -0.596,0.749 -0.05,0 -0.08,0.05 -0.07,0.107 0.03,0.112 -0.333,0.746 -0.426,0.746 -0.03,0 -0.02,-0.06 0.01,-0.128 z m -0.622,-0.523 c 0.654,-0.05 0.663,-0.06 1.004,-0.494 0.189,-0.242 0.344,-0.517 0.344,-0.609 0,-0.09 -0.748,-1.319 -1.663,-2.725 l -1.662,-2.556 0.07,1.492 c 0.04,0.821 0.07,2.269 0.07,3.219 l 0,1.727 0.588,0 c 0.323,0 0.884,-0.02 1.247,-0.05 z m -28.189,0.428 c -0.153,-0.143 -0.08,-5.34 0.08,-5.38 0.1,-0.02 4.405,4.223 4.804,4.737 0.06,0.08 0.05,0.181 -0.01,0.265 -0.1,0.119 -0.06,0.133 0.274,0.103 0.232,-0.02 0.359,-0 0.319,0.05 -0.161,0.202 -5.263,0.414 -5.463,0.227 z m 4.447,-0.373 c 0.15,-0.115 0.179,-0.194 0.1,-0.273 -0.06,-0.06 -1.014,-1.033 -2.119,-2.158 -1.105,-1.126 -2.051,-2.083 -2.103,-2.128 -0.05,-0.04 -0.1,1.003 -0.1,2.38 l 0,2.46 2.004,-0.06 c 1.759,-0.05 2.028,-0.08 2.213,-0.222 z m 20.26,0.327 c 0,-0.123 0.167,-0.137 0.3,-0.03 0.109,0.09 0.09,0.111 -0.08,0.101 -0.119,-0 -0.217,-0.04 -0.217,-0.07 z m -18.937,-0.08 c -0.137,-0.173 -0.03,-10.364 0.118,-10.719 0.02,-0.06 0.156,-0.11 0.294,-0.113 0.237,-0 0.239,-0.01 0.03,-0.08 -0.212,-0.07 -0.212,-0.07 0.02,-0.08 0.131,-0 0.328,-0.03 0.439,-0.06 0.167,-0.04 0.173,-0.04 0.04,0.04 -0.136,0.08 -0.121,0.09 0.09,0.09 0.14,10e-4 0.227,-0.03 0.196,-0.07 -0.03,-0.04 0.05,-0.06 0.187,-0.04 0.135,0.02 1.603,-0.136 3.262,-0.348 1.659,-0.212 4.227,-0.53 5.706,-0.707 1.479,-0.178 2.702,-0.346 2.719,-0.374 0.02,-0.03 0.189,-0.04 0.384,-0.02 0.282,0.03 0.321,0.01 0.19,-0.06 -0.128,-0.07 -0.05,-0.08 0.329,-0.05 0.352,0.03 0.431,0.02 0.274,-0.03 -0.152,-0.06 -0.06,-0.06 0.319,-0.03 0.431,0.04 0.521,0.03 0.449,-0.06 -0.07,-0.08 -0.04,-0.1 0.116,-0.05 0.275,0.08 2.178,-0.128 1.998,-0.22 -0.08,-0.04 0.08,-0.05 0.356,-0.03 0.383,0.04 0.445,0.03 0.275,-0.04 -0.171,-0.07 -0.113,-0.08 0.259,-0.04 0.263,0.03 0.535,0.01 0.604,-0.03 0.07,-0.05 0.23,-0.05 0.375,-0 l 0.251,0.07 -0.01,6.1 c -0.01,5.543 -0.03,6.114 -0.196,6.259 -0.167,0.146 -0.559,0.17 -4.847,0.299 -7.692,0.23 -12.52,0.383 -13.362,0.425 -0.437,0.02 -0.822,0 -0.855,-0.04 z m 8.674,-0.423 c 4.287,-0.14 8.266,-0.254 8.843,-0.255 1.595,0 1.427,0.751 1.394,-6.229 l -0.03,-6.016 -3.238,0.402 c -1.781,0.22 -4.053,0.501 -5.049,0.623 -0.996,0.123 -3.367,0.414 -5.268,0.647 -1.902,0.234 -3.787,0.466 -4.189,0.517 l -0.732,0.09 -0.06,0.697 c -0.03,0.383 -0.09,2.74 -0.131,5.237 l -0.07,4.541 0.368,0 c 0.203,0 3.876,-0.115 8.162,-0.255 z m 10.373,0.08 c 0,-0.05 0.07,-0.08 0.165,-0.08 0.09,0 0.164,0.01 0.164,0.03 0,0.02 -0.07,0.06 -0.164,0.08 -0.09,0.03 -0.165,0.01 -0.165,-0.03 z m 0.549,-0.168 c -0.06,-0.09 -0.09,-0.17 -0.06,-0.17 0.03,0 0.108,0.08 0.172,0.17 0.06,0.09 0.09,0.171 0.06,0.171 -0.03,0 -0.108,-0.08 -0.172,-0.171 z m 4.956,-0.511 c 0,-0.118 0.03,-0.166 0.06,-0.107 0.03,0.06 0.03,0.155 0,0.213 -0.03,0.06 -0.06,0.01 -0.06,-0.106 z M 400.396,509.5 c -0.227,-0.178 -1.227,-1.162 -2.223,-2.187 -0.996,-1.026 -1.944,-1.976 -2.107,-2.111 -0.163,-0.136 -0.296,-0.262 -0.295,-0.28 10e-4,-0.03 2.911,-2.254 4.14,-3.157 0.382,-0.281 0.752,-0.511 0.823,-0.511 0.1,0 0.129,1.073 0.132,4.285 0,2.357 -0.01,4.285 -0.03,4.285 -0.02,0 -0.217,-0.146 -0.443,-0.324 z m 0.166,-5.913 -0.03,-1.985 -2.141,1.604 c -1.177,0.883 -2.14,1.645 -2.14,1.695 0,0.05 0.963,1.073 2.14,2.275 l 2.141,2.185 0.03,-1.894 c 0.02,-1.042 0.02,-2.788 0,-3.88 z m 25.252,5.193 c -0.101,-0.2 -0.216,-0.45 -0.255,-0.556 -0.04,-0.106 -0.108,-0.176 -0.152,-0.155 -0.04,0.02 -0.865,-1.186 -1.825,-2.683 -1.521,-2.372 -1.732,-2.749 -1.64,-2.941 0.212,-0.449 3.478,-3.864 3.647,-3.814 0.14,0.04 0.154,0.655 0.103,4.706 -0.06,5.044 -0.06,5.125 0.261,5.06 0.261,-0.05 0.293,-0.449 0.04,-0.449 -0.107,0 -0.157,-0.06 -0.13,-0.149 0.02,-0.08 0.1,-0.14 0.172,-0.128 0.192,0.03 0.16,-0.378 -0.03,-0.436 -0.09,-0.03 -0.164,-0.108 -0.164,-0.18 0,-0.209 0.327,-0.151 0.348,0.06 0.101,0.993 0.05,1.514 -0.14,1.514 -0.06,0 -0.08,-0.05 -0.03,-0.107 0.06,-0.08 0.05,-0.08 -0.07,-0 -0.114,0.08 -0.115,0.129 -0,0.23 0.07,0.07 0.119,0.188 0.1,0.261 -0.02,0.07 -0.118,-0.03 -0.22,-0.231 z m -0.423,-5.416 c -0,-4.317 -0,-4.327 -0.218,-4.114 -0.272,0.268 -2.879,3.064 -2.991,3.207 -0.06,0.08 3.06,5.219 3.184,5.232 0.01,0 0.03,-1.944 0.03,-4.325 z m 0.788,5.522 c 0,-0.117 0.03,-0.165 0.06,-0.107 0.03,0.06 0.03,0.155 0,0.213 -0.03,0.06 -0.06,0.01 -0.06,-0.106 z m -4.948,-1.073 c 0,-0.1 0.03,-0.12 0.07,-0.05 0.03,0.06 0.03,0.135 -0,0.164 -0.04,0.03 -0.06,-0.02 -0.06,-0.112 z m 0,-0.768 c 0,-0.1 0.03,-0.119 0.07,-0.05 0.03,0.06 0.03,0.135 -0,0.163 -0.04,0.03 -0.06,-0.02 -0.06,-0.112 z m 4.94,-0.341 c 0,-0.1 0.03,-0.119 0.07,-0.05 0.03,0.06 0.03,0.135 -0,0.163 -0.04,0.03 -0.06,-0.02 -0.06,-0.112 z m -0.319,-0.348 c 0.05,-0.214 0.31,-0.243 0.31,-0.03 0,0.104 -0.07,0.177 -0.173,0.177 -0.102,0 -0.158,-0.06 -0.137,-0.142 z m 0.319,-0.419 c 0,-0.1 0.03,-0.12 0.07,-0.05 0.03,0.06 0.03,0.135 -0,0.164 -0.04,0.03 -0.06,-0.02 -0.06,-0.112 z m -0.282,-0.205 c -0.08,-0.102 0.02,-0.257 0.17,-0.257 0.133,0 0.134,0.231 10e-4,0.295 -0.06,0.03 -0.133,0.01 -0.171,-0.04 z m -0.04,-0.816 c 0.05,-0.185 0.245,-0.196 0.289,-0.02 0.02,0.09 -0.03,0.149 -0.144,0.149 -0.105,0 -0.166,-0.06 -0.145,-0.132 z m -3.134,-0.425 c -0.106,-0.214 -0.08,-0.27 0.06,-0.1 0.06,0.09 0.09,0.174 0.06,0.196 -0.03,0.02 -0.08,-0.02 -0.12,-0.1 z m -26.854,-0.231 c -0.02,-0.735 0.02,-4.286 0.06,-4.313 0.04,-0.03 3.74,0.624 4.583,0.807 0.347,0.08 0.206,0.249 -0.823,1.014 -0.558,0.415 -1.569,1.169 -2.246,1.676 -1.148,0.86 -1.563,1.075 -1.572,0.816 z m 4.315,-3.309 c -0.08,-0.05 -3.813,-0.766 -4.009,-0.764 -0.05,0 -0.08,0.887 -0.08,1.97 l 0,1.97 2.089,-1.558 c 1.148,-0.857 2.05,-1.585 2.003,-1.618 z m 25.709,3.33 c -0.08,-0.101 0.02,-0.256 0.171,-0.256 0.06,0 0.103,0.08 0.103,0.171 0,0.18 -0.16,0.229 -0.274,0.08 z m 0.03,-0.648 c -0.08,-0.06 0.02,-0.29 0.128,-0.29 0.04,0 0.08,0.08 0.09,0.171 0.02,0.166 -0.09,0.222 -0.219,0.119 z m -0.03,-0.802 c -0.08,-0.1 0.02,-0.255 0.171,-0.255 0.06,0 0.103,0.08 0.103,0.17 0,0.18 -0.16,0.23 -0.274,0.09 z m 0.05,-0.767 c 0,-0.09 0.04,-0.171 0.09,-0.171 0.05,0 0.09,0.08 0.103,0.171 0,0.09 -0.03,0.17 -0.09,0.17 -0.06,0 -0.103,-0.08 -0.103,-0.17 z m -3.988,-0.398 c -0.108,-0.08 -0.09,-4.104 0.02,-4.156 0.05,-0.02 0.452,-0.09 0.89,-0.147 0.868,-0.112 0.993,-0.09 2.184,0.337 0.61,0.22 0.676,0.239 0.894,0.26 0.06,0 0.11,0.05 0.11,0.106 0,0.07 -0.05,0.06 -0.164,-0.01 -0.121,-0.08 -0.165,-0.08 -0.165,-0 0,0.06 -0.1,0.183 -0.223,0.285 -0.122,0.102 -0.455,0.456 -0.74,0.785 -0.284,0.33 -0.57,0.638 -0.634,0.685 -0.06,0.05 -0.26,0.258 -0.436,0.469 -0.177,0.211 -0.421,0.483 -0.543,0.605 -0.123,0.122 -0.364,0.362 -0.537,0.533 -0.302,0.3 -0.499,0.376 -0.656,0.255 z m 3.06,-3.265 0.359,-0.38 -0.833,-0.282 c -0.826,-0.279 -0.84,-0.28 -1.585,-0.174 l -0.752,0.107 -0.06,1.919 -0.06,1.919 1.289,-1.365 c 0.709,-0.75 1.45,-1.535 1.648,-1.744 z m 0.899,3.015 c -0.09,-0.07 0.03,-0.29 0.151,-0.29 0.05,0 0.1,0.08 0.1,0.17 0,0.167 -0.117,0.223 -0.249,0.12 z m 0.03,-0.802 c 0,-0.09 0.04,-0.17 0.09,-0.17 0.05,0 0.09,0.08 0.103,0.17 0,0.09 -0.03,0.171 -0.09,0.171 -0.06,0 -0.103,-0.08 -0.103,-0.171 z m -24.577,-0.05 c 0,-0.1 0.03,-0.119 0.07,-0.05 0.03,0.06 0.03,0.135 -0,0.163 -0.04,0.03 -0.06,-0.02 -0.06,-0.112 z m 19.866,0 c 0,-0.1 0.03,-0.119 0.07,-0.05 0.03,0.06 0.03,0.135 -0,0.163 -0.04,0.03 -0.06,-0.02 -0.06,-0.112 z m -23.113,-0.374 -2.195,-0.405 -0.03,-0.417 c -0.02,-0.229 -0.08,-0.453 -0.137,-0.498 -0.2,-0.157 -0.1,-0.238 0.231,-0.186 0.22,0.03 0.311,0.02 0.264,-0.04 -0.05,-0.06 0.06,-0.07 0.339,-0.03 0.293,0.04 0.389,0.03 0.335,-0.04 -0.05,-0.07 0.03,-0.08 0.259,-0.04 0.185,0.03 0.334,0.02 0.334,-0.03 0,-0.04 0.156,-0.06 0.345,-0.04 0.256,0.03 0.323,0.01 0.261,-0.07 -0.06,-0.08 -10e-4,-0.09 0.248,-0.05 0.183,0.03 0.361,0.02 0.396,-0.02 0.03,-0.04 0.194,-0.06 0.356,-0.03 0.161,0.02 0.266,0 0.233,-0.03 -0.03,-0.04 0.194,-0.08 0.503,-0.09 0.31,-0 0.58,-0.06 0.602,-0.107 0.02,-0.05 0.08,-0.07 0.137,-0.04 0.05,0.03 1.718,-0.184 3.696,-0.468 12.828,-1.837 16.221,-2.293 16.342,-2.195 0.126,0.103 0.308,1.423 0.197,1.423 -0.13,0 -18.018,2.299 -18.465,2.373 -0.56,0.09 -0.791,-0.03 -0.708,-0.364 0.05,-0.221 -0.206,-0.321 -0.353,-0.137 -0.04,0.05 -0.135,0.06 -0.221,0.04 -0.13,-0.04 -0.155,0.107 -0.149,0.85 0,1.286 0.27,1.225 -2.816,0.656 z m 2.511,-0.518 c 0.03,-0.396 0.05,-0.847 0.06,-1.002 l 0.01,-0.282 0.576,0.03 c 0.563,0.03 0.577,0.03 0.611,0.306 0.03,0.264 0.06,0.277 0.384,0.232 0.192,-0.03 3.931,-0.507 8.307,-1.069 10.169,-1.306 9.91,-1.272 9.944,-1.299 0.07,-0.06 -0.105,-1.086 -0.186,-1.086 -0.05,0 -2.129,0.29 -4.622,0.644 -2.493,0.354 -5.223,0.74 -6.069,0.858 -0.845,0.118 -4.213,0.596 -7.486,1.062 -3.272,0.465 -5.976,0.847 -6.009,0.847 -0.09,0 -0.07,0.681 0.02,0.688 0.05,0 1.046,0.188 2.223,0.41 1.177,0.223 2.151,0.401 2.163,0.396 0.01,-0 0.05,-0.334 0.07,-0.731 z m 25.313,0.232 c 0,-0.126 0.05,-0.228 0.11,-0.228 0.06,0 0.09,0.08 0.07,0.168 -0.05,0.268 -0.185,0.31 -0.185,0.06 z m -24.147,-0.389 c 0.276,-0.12 0.768,-0.188 0.768,-0.107 0,0.04 -0.154,0.1 -0.343,0.13 -0.462,0.07 -0.624,0.06 -0.425,-0.02 z m 24.147,-0.36 c 0,-0.124 0.05,-0.164 0.165,-0.13 0.09,0.03 0.165,0 0.165,-0.05 0,-0.05 0.03,-0.07 0.06,-0.05 0.09,0.07 -0.153,0.405 -0.287,0.405 -0.06,0 -0.106,-0.08 -0.106,-0.18 z m 0.33,-0.5 c 0,-0.04 -0.07,-0.06 -0.165,-0.03 -0.114,0.03 -0.165,-0 -0.165,-0.131 0,-0.1 0.05,-0.179 0.117,-0.179 0.06,0 0.08,0.04 0.05,0.08 -0.04,0.05 0,0.09 0.103,0.09 0.09,0 0.171,0.06 0.171,0.128 0,0.07 -0.02,0.128 -0.05,0.128 -0.03,0 -0.06,-0.04 -0.06,-0.08 z M 395.791,498.3 c 0.113,-0.05 0.703,-0.14 2.437,-0.379 0.25,-0.03 0.289,-0.02 0.164,0.04 -0.09,0.05 -0.288,0.09 -0.439,0.09 -0.219,0 -0.241,0.02 -0.109,0.09 0.117,0.06 0.02,0.07 -0.33,0.04 -0.391,-0.03 -0.437,-0.02 -0.219,0.04 0.22,0.06 0.176,0.07 -0.22,0.04 -0.326,-0.03 -0.42,-0.02 -0.276,0.03 0.147,0.05 -0,0.07 -0.461,0.06 -0.373,-0 -0.619,-0.03 -0.547,-0.06 z m 30.456,-0.01 c -0.03,-0.06 -0.01,-0.202 0.03,-0.319 0.07,-0.186 0.08,-0.172 0.09,0.106 0.01,0.325 -0.04,0.407 -0.123,0.213 z m -5.016,-0.113 c 0,-0.1 0.03,-0.12 0.07,-0.05 0.03,0.06 0.03,0.135 -0,0.164 -0.04,0.03 -0.06,-0.02 -0.06,-0.112 z m 4.527,-0.589 c -0.124,-0.07 -0.255,-0.1 -0.292,-0.07 -0.08,0.06 -0.621,-0.203 -0.621,-0.306 0,-0.165 0.592,-0.193 0.731,-0.03 0.07,0.09 0.222,0.222 0.325,0.304 0.245,0.193 0.148,0.266 -0.143,0.108 z m 0.438,-0.427 c 0,-0.282 0.02,-0.387 0.05,-0.233 0.02,0.153 0.02,0.383 -0,0.511 -0.03,0.128 -0.05,0 -0.04,-0.278 z m -0,-0.811 c 0,-0.164 0.02,-0.231 0.05,-0.149 0.03,0.08 0.03,0.217 0,0.299 -0.03,0.08 -0.05,0.01 -0.05,-0.15 z m -4.963,-0.528 c 0,-0.08 0.05,-0.167 0.108,-0.196 0.139,-0.07 0.139,0.05 0,0.213 -0.09,0.11 -0.106,0.108 -0.108,-0.02 z m -0.437,-0.578 c -0.122,-0.06 -0.126,-0.1 -0.02,-0.199 0.106,-0.1 0.1,-0.135 -0.04,-0.176 -0.1,-0.03 -0.143,-0.09 -0.105,-0.139 0.04,-0.05 0.127,-0.04 0.226,0.04 0.194,0.151 0.205,0.305 0.02,0.307 -0.09,0 -0.08,0.03 0.02,0.08 0.09,0.04 0.137,0.1 0.107,0.122 -0.03,0.02 -0.125,0 -0.21,-0.03 z m 0.509,-0.06 c -0.107,-0.08 -0.09,-0.37 0.02,-0.37 0.05,0 0.1,0.1 0.1,0.214 0,0.23 -0,0.242 -0.119,0.156 z m -0,-0.732 c -0.09,-0.268 -0.08,-0.405 0.02,-0.405 0.05,0 0.1,0.134 0.107,0.298 0.02,0.343 -0.03,0.384 -0.13,0.107 z m -0.618,-0.01 c 0,-0.02 0.08,-0.06 0.171,-0.08 0.1,-0.03 0.141,-0.02 0.103,0.03 -0.06,0.08 -0.274,0.12 -0.274,0.05 z m 3.22,26.686 c 0.715,-0.112 1.315,-0.216 1.333,-0.232 0.03,-0.03 -2.928,-3.953 -3.058,-4.054 -0.04,-0.03 -0.07,0.97 -0.07,2.221 l 0,2.274 0.247,-0 c 0.136,-0 0.832,-0.09 1.546,-0.207 z m -25.063,-0.945 c 1.956,-0.143 2.076,-0.157 1.916,-0.22 -0.175,-0.07 -4.795,0.303 -4.697,0.379 0.05,0.04 0.289,0.05 0.531,0.02 0.242,-0.03 1.254,-0.107 2.25,-0.181 z m -0.493,-0.299 c 2.195,-0.147 2.214,0.07 -0.182,-2.028 l -2.08,-1.819 0.02,1.947 c 0.02,2.182 0,2.107 0.473,2.042 0.189,-0.03 0.986,-0.09 1.771,-0.142 z m 22.738,-5.305 c -0.03,-0.06 -0.06,-0.01 -0.06,0.107 0,0.117 0.02,0.165 0.06,0.106 0.03,-0.06 0.03,-0.154 0,-0.213 z m 0,-1.663 c -0.03,-0.08 -0.05,-0.01 -0.05,0.149 0,0.165 0.02,0.232 0.05,0.15 0.03,-0.08 0.03,-0.217 0,-0.299 z"
         id="path3138"
         inkscape:connector-curvature="0" />
      <path
         style="fill:none;stroke:#000000;stroke-width:0.2;stroke-linecap:butt;stroke-linejoin:miter;stroke-opacity:1;stroke-miterlimit:4;stroke-dasharray:none"
         d="m 311.914,501.941 c 0,0.154 0,0.307 0,0.461 0,0.02 0.01,0.04 0,0.05 -0.01,0.01 -0.04,-0.01 -0.05,0 -0.01,0.01 0,0.03 0,0.05 0,0.02 0,0.03 0,0.05 0,0.02 0,0.07 0,0.05 0,-0.03 0,-0.137 0,-0.103 0,0.07 0,0.137 0,0.205 0,0.02 0,0.07 0,0.05 0,-0.03 0,-0.136 0,-0.102 0,0.102 0,0.205 0,0.307 0,0.05 0,0.153 0,0.103 0,-0.03 0,-0.137 0,-0.103 0,0.05 0,0.103 0,0.154"
         id="path3933"
         inkscape:connector-curvature="0"
         transform="translate(84.1325,-4.20662)" />
      <path
         style="fill:none;stroke:#000000;stroke-width:0.2;stroke-linecap:butt;stroke-linejoin:miter;stroke-opacity:1;stroke-miterlimit:4;stroke-dasharray:none"
         d="m 311.76,514.85 c 0.02,0.07 0.04,0.136 0.05,0.205 0,0.03 0,0.07 0,0.102 0,0.103 0,0.205 0,0.307 0,0.02 0,0.03 0,0.05 0,0.02 -0.01,0.04 0,0.05 0.01,0.01 0.04,-0.01 0.05,0 0.01,0.01 0,0.03 0,0.05 0,0.02 0,0.03 0,0.05 0,0.05 0,0.103 0,0.154 0,0.02 0,0.07 0,0.05 0,-0.03 0,-0.136 0,-0.102 0,0.07 0,0.136 0,0.205 0,0.02 0,0.07 0,0.05 0,-0.03 0,-0.137 0,-0.102 0,0.05 0,0.102 0,0.153"
         id="path3935"
         inkscape:connector-curvature="0"
         transform="translate(84.1325,-4.20662)" />
      <path
         style="fill:none;stroke:#000000;stroke-width:0.2;stroke-linecap:butt;stroke-linejoin:miter;stroke-opacity:1;stroke-miterlimit:4;stroke-dasharray:none"
         d="m 316.576,515.874 c 0.173,0.16 0.152,0.154 0.307,0.154 0.07,0 0.136,0 0.205,0 0.05,0 0.153,0 0.102,0 -0.03,0 -0.136,0 -0.102,0 0.07,0 0.136,0 0.205,0 0.02,0 0.07,0 0.05,0 -0.03,0 -0.137,0 -0.103,0 0.05,0 0.103,0 0.154,0 0.12,0 0.239,0 0.359,0 0.03,0 0.07,0 0.102,0 0.02,0 0.07,0 0.05,0 -0.03,0 -0.07,0 -0.102,0"
         id="path3937"
         inkscape:connector-curvature="0"
         transform="translate(84.1325,-4.20662)" />
      <path
         style="fill:none;stroke:#000000;stroke-width:0.2;stroke-linecap:butt;stroke-linejoin:miter;stroke-opacity:1;stroke-miterlimit:4;stroke-dasharray:none"
         d="m 317.651,503.324 c 0,0.222 0,0.444 0,0.666 0,0.03 0,0.07 0,0.102 0,0.02 0,0.07 0,0.05 0,-0.05 0,-0.205 0,-0.154 0,0.07 -0.02,0.139 0,0.205 0,0.02 0.04,-0.01 0.05,0 0.01,0.01 0,0.03 0,0.05 0,0.02 0.02,0.05 0,0.05 -0.02,0 0,-0.07 0,-0.05 0,0.03 -0.01,0.07 0,0.102 0,0.02 0.05,-0.02 0.05,0 0,0.02 -0.03,0 -0.05,0"
         id="path3939"
         inkscape:connector-curvature="0"
         transform="translate(84.1325,-4.20662)" />
      <path
         style="fill:none;stroke:#000000;stroke-width:0.2;stroke-linecap:butt;stroke-linejoin:miter;stroke-opacity:1;stroke-miterlimit:4;stroke-dasharray:none"
         d="m 336.656,498.201 c 0.07,0.211 0.05,0.296 0.05,0.513 0,0.03 0,0.07 0,0.102 0.01,0.07 0.04,0.136 0.05,0.205 0,0.02 0,0.03 0,0.05 0,0.09 0,0.171 0,0.256 0,0.205 0,0.41 0,0.615 0,0.461 0,0.922 0,1.383 0,0.12 0,0.239 0,0.359 0,0.02 0,0.03 0,0.05 0,0.02 0.01,0.04 0,0.05 -0.01,0.01 -0.05,0.02 -0.05,0 0,-0.02 0.05,-0.07 0.05,-0.05 0,0.04 -0.04,0.07 -0.05,0.102 0,0.02 0,0.03 0,0.05 0,0.02 0,0.03 0,0.05 0,0.02 0.02,0.05 0,0.05 -0.02,0 0,-0.07 0,-0.05 0,0.03 0.02,0.07 0,0.102 0,0.02 -0.05,0.02 -0.05,0 0,-0.02 0.03,0 0.05,0"
         id="path3941"
         inkscape:connector-curvature="0"
         transform="translate(84.1325,-4.20662)" />
      <path
         style="fill:none;stroke:#000000;stroke-width:0.2;stroke-linecap:butt;stroke-linejoin:miter;stroke-opacity:1;stroke-miterlimit:4;stroke-dasharray:none"
         d="m 336.451,513.979 c 0.07,0.271 0.05,0.134 0.05,0.41 0,0.02 0,0.03 0,0.05 0,0.02 0,0.04 0,0.05 0.01,0.02 0.04,0.03 0.05,0.05 0,0.02 0,0.131 0,0.154 0,0.08 0,0.171 0,0.256 0,0.239 0,0.478 0,0.717 0,0.12 0,0.239 0,0.359 0,0.02 0.01,0.04 0,0.05 -0.137,0 0.02,-0.02 -0.05,0.05 -0.01,0.01 -0.04,-0.01 -0.05,0 -0.01,0.01 -0.02,0.05 0,0.05 0.02,0 0.03,-0.03 0.05,-0.05"
         id="path3943"
         inkscape:connector-curvature="0"
         transform="translate(84.1325,-4.20662)" />
      <path
         style="fill:none;stroke:#000000;stroke-width:0.2;stroke-linecap:butt;stroke-linejoin:miter;stroke-opacity:1;stroke-miterlimit:4;stroke-dasharray:none"
         d="m 316.268,514.901 c 0.09,0 0.171,0 0.256,0 0.232,0 -0.05,0.02 0.308,-0.102 0.03,-0.01 0.07,0 0.102,0 0.04,-0.01 0.07,-0.04 0.103,-0.05 0.03,0 0.12,0 0.153,0 0.12,0 0.239,0 0.359,0 0.07,0 0.136,0 0.205,0 0.02,0 0.07,0 0.05,0 -0.03,0 -0.137,0 -0.103,0 0.05,0 0.103,0 0.154,0 0.02,0 0.05,-0.02 0.05,0 0,0.02 -0.03,0 -0.05,0"
         id="path3945"
         inkscape:connector-curvature="0"
         transform="translate(84.1325,-4.20662)" />
      <path
         style="fill:none;stroke:#000000;stroke-width:0.2;stroke-linecap:butt;stroke-linejoin:miter;stroke-opacity:1;stroke-miterlimit:4;stroke-dasharray:none"
         d="m 337.885,500.046 c 0,0.307 0,0.614 0,0.922 0,0.02 0,0.202 0,0.204 0.01,0.01 0.04,-0.02 0.05,0 0,0.01 0,0.266 0,0.308 0,0.02 -0.01,0.04 0,0.05 0.01,0.01 0.04,-0.01 0.05,0 0.01,0.01 0,0.03 0,0.05 0,0.02 0,0.03 0,0.05 0,0.183 0,0.221 0,0.307"
         id="path3949"
         inkscape:connector-curvature="0"
         transform="translate(84.1325,-4.20662)" />
      <path
         style="fill:none;stroke:#000000;stroke-width:0.2;stroke-linecap:butt;stroke-linejoin:miter;stroke-opacity:1;stroke-miterlimit:4;stroke-dasharray:none"
         d="m 339.32,501.531 c 0.07,0.02 0.134,0.05 0.205,0.05 0.02,0 0.03,-0.04 0.05,-0.05 0.01,0 0.04,0.01 0.05,0 0.01,-0.01 -0.01,-0.04 0,-0.05 0.01,-0.01 0.03,0 0.05,0 0.02,0 0.07,0 0.05,0 -0.04,0 -0.127,0.02 -0.103,0 0.276,-0.276 0.07,0.02 0.205,-0.05 0.02,-0.01 0.03,-0.04 0.05,-0.05 0.03,-0.02 0.224,0.02 0.256,0 0.02,-0.01 0.03,-0.04 0.05,-0.05 0.01,0 0.178,0 0.205,0 0.02,0 0.07,0 0.05,0 -0.03,0 -0.127,0.02 -0.103,0 0.07,-0.07 0.216,-0.05 0.308,-0.05 0.02,0 0.03,0 0.05,0 0.02,0 0.04,0 0.05,0 0.127,-0.06 -0.02,-0.05 0.103,-0.05 0.02,0 0.07,0 0.05,0 -0.216,0 -0.04,0.01 0.05,-0.05 0.03,-0.02 -0.02,-0.08 0,-0.102 0.137,0 -0.02,0.02 0.05,-0.05 0.01,-0.01 0.03,0 0.05,0 0.02,0 0.07,0 0.05,0 -0.03,0 -0.137,0 -0.103,0 0.07,0 0.137,0 0.205,0 0.02,0 0.07,0 0.05,0 -0.03,0 -0.136,0 -0.102,0 0.05,0 0.102,0 0.154,0 0.02,0 0.05,-0.02 0.05,0 0,0.02 -0.06,0.01 -0.05,0 0.03,-0.03 0.07,-0.02 0.102,-0.05 0,0 0,-0.142 0,-0.154 0,-0.05 0,-0.153 0,-0.103 0,0.293 0,-0.1 0,-0.102 -0.01,-0.01 -0.04,0.01 -0.05,0 -0.02,-0.02 0.02,-0.08 0,-0.102 -0.01,-0.01 -0.04,0.01 -0.05,0 -0.01,-0.01 0.01,-0.04 0,-0.05 -0.01,-0.01 -0.04,0.01 -0.05,0 -0.01,-0.01 -0.02,-0.05 0,-0.05 0.02,0 0.05,0.07 0.05,0.05 0,-0.04 -0.04,-0.07 -0.05,-0.102 0,-0.02 0,-0.03 0,-0.05 0,-0.02 0,-0.07 0,-0.05 0,0.04 0,0.137 0,0.103 0,-0.05 -0.02,-0.105 0,-0.154 0,-0.02 0.03,0 0.05,0 0,-0.02 0,-0.03 0,-0.05"
         id="path3951"
         inkscape:connector-curvature="0"
         transform="translate(84.1325,-4.20662)" />
      <path
         style="fill:none;stroke:#000000;stroke-width:0.2;stroke-linecap:butt;stroke-linejoin:miter;stroke-opacity:1;stroke-miterlimit:4;stroke-dasharray:none"
         d="m 337.937,514.594 c 0.02,0.08 0.04,0.17 0.05,0.256 0.01,0.08 0,0.219 0,0.307 0,0.05 0,0.153 0,0.103 0,-0.319 0,0.209 0,0.256 0,0.07 0,0.136 0,0.205 0,0.03 0,0.136 0,0.102 0,-0.03 0,-0.137 0,-0.102 0,0.05 0,0.102 0,0.153"
         id="path3953"
         inkscape:connector-curvature="0"
         transform="translate(84.1325,-4.20662)" />
      <path
         style="fill:none;stroke:#000000;stroke-width:0.2;stroke-linecap:butt;stroke-linejoin:miter;stroke-opacity:1;stroke-miterlimit:4;stroke-dasharray:none"
         d="m 339.525,515.567 c 0.07,-0.03 0.134,-0.07 0.205,-0.103 0.04,-0.02 0.222,0.02 0.256,0 0.02,-0.01 0.03,-0.04 0.05,-0.05 0.03,0 0.304,0 0.359,0 0.03,0 0.07,0 0.102,0 0.02,0 0.07,0 0.05,0 -0.05,0 -0.205,0 -0.153,0 0.204,0 0.409,0 0.614,0 0.02,0 0.07,0 0.05,0 -0.03,0 -0.126,-0.02 -0.102,0 0.04,0.04 0.101,0.04 0.154,0.05 0.02,0 0.04,0.01 0.05,0 0.02,-0.02 -0.01,-0.07 0,-0.102 0.01,-0.02 0.04,-0.03 0.05,-0.05 0,-0.02 0,-0.221 0,-0.256 0,-0.02 -0.01,-0.04 0,-0.05 0.01,-0.01 0.05,-0.02 0.05,0 0,0.02 -0.05,0.08 -0.05,0.05 0,-0.04 0.04,-0.07 0.05,-0.103 0,-0.02 0,-0.03 0,-0.05 0,-0.03 0,-0.07 0,-0.102 0,-0.02 0,-0.07 0,-0.05 0,0.03 0,0.137 0,0.103 0,-0.05 0,-0.103 0,-0.154 0,-0.102 0,-0.205 0,-0.307 0,-0.03 0,-0.07 0,-0.103 0,-0.02 0,-0.07 0,-0.05 0,0.05 0,0.205 0,0.154 0,-0.07 0,-0.137 0,-0.205 0,-0.02 -0.02,-0.05 0,-0.05 0.02,0 0,0.03 0,0.05"
         id="path3955"
         inkscape:connector-curvature="0"
         transform="translate(84.1325,-4.20662)" />
      <path
         style="fill:#0000ff;fill-opacity:1;stroke:#000000;stroke-width:0.010245;stroke-linecap:round;stroke-linejoin:round;stroke-miterlimit:4;stroke-opacity:1;stroke-dasharray:none"
         d="m 311.014,527.053 c -0.06,-0.07 -0.07,-1.804 -0.09,-10.745 -0.02,-10.937 0,-13.882 0.113,-13.847 0.03,0.01 0.08,0.127 0.102,0.258 0.04,0.221 0.136,0.311 0.207,0.196 0.05,-0.08 -0.08,-0.445 -0.232,-0.611 -0.161,-0.184 -0.193,-0.419 -0.09,-0.649 0.09,-0.2 0.35,-0.195 0.568,0.01 0.168,0.16 0.172,0.184 0.04,0.309 -0.103,0.1 -0.103,0.1 0.03,0.154 0.148,0.07 0.161,0.146 0.05,0.306 -0.04,0.06 -0.06,0.114 -0.03,0.114 0.03,0 0.05,0.07 0.05,0.153 0,0.118 -0.02,0.154 -0.1,0.154 -0.139,0 -0.182,0.09 -0.09,0.195 0.103,0.117 0.188,0.446 0.189,0.731 l 0,0.234 0.5,0.09 c 1.111,0.195 1.91,0.355 1.888,0.377 -0.01,0.01 -0.543,-0.06 -1.178,-0.171 -0.635,-0.107 -1.165,-0.184 -1.178,-0.171 -0.04,0.04 -0.1,4.176 -0.06,4.325 0.08,0.3 0.375,0.127 2.464,-1.424 2.257,-1.674 2.499,-1.885 2.345,-2.039 -0.03,-0.03 -0.265,-0.09 -0.53,-0.143 l -0.483,-0.1 0.551,0.03 c 0.761,0.04 0.755,0.05 0.756,-0.802 0,-0.832 0.03,-1.029 0.165,-1.029 0.05,0 0.167,-0.04 0.249,-0.09 0.1,-0.06 0.165,-0.07 0.2,-0.04 0.08,0.08 0.143,1.613 0.1,2.506 -0.02,0.45 -0.06,2.727 -0.08,5.058 l -0.04,4.239 -0.209,0 c -0.116,0 -0.285,0.02 -0.376,0.05 -0.16,0.05 -0.166,0.04 -0.166,-0.101 0,-0.12 -0.14,-0.295 -0.739,-0.931 -0.732,-0.777 -3.046,-3.048 -3.735,-3.667 -0.197,-0.177 -0.378,-0.302 -0.402,-0.278 -0.09,0.09 -0.156,2.35 -0.123,4.161 0.02,1 0.04,2.487 0.05,3.304 0,0.817 0.03,1.526 0.05,1.575 0.07,0.143 0.243,0.105 0.538,-0.119 0.151,-0.114 0.283,-0.199 0.294,-0.188 0.01,0.01 -0.176,0.21 -0.415,0.442 -0.239,0.232 -0.435,0.452 -0.435,0.488 0,0.1 0.126,0.22 1.358,1.312 2.143,1.901 3.073,2.68 3.355,2.81 0.1,0.05 0.209,0.118 0.245,0.16 0.05,0.06 0.06,-0.503 0.06,-3.048 0,-1.719 0,-3.43 0,-3.802 l 0,-0.678 0.167,0.03 c 0.09,0.02 0.195,0.07 0.23,0.111 0.06,0.07 0.06,0.07 0.06,0 0,-0.05 0.04,-0.09 0.103,-0.09 0.101,0 0.102,0.03 0.1,2.241 0,4.082 -0.07,7.869 -0.131,7.973 -0.05,0.09 -0.06,0.09 -0.145,-0.04 -0.1,-0.153 -0.255,-0.179 -0.304,-0.05 -0.07,0.191 -0.1,-0.04 -0.128,-1.113 l -0.03,-1.132 -0.255,-0.213 c -0.14,-0.117 -0.659,-0.57 -1.152,-1.007 -1.766,-1.562 -2.963,-2.576 -3.292,-2.789 -0.08,-0.05 -0.178,-0.08 -0.224,-0.06 -0.08,0.03 -0.08,0.245 -0.07,2.298 0,1.247 0,2.347 0,2.446 0,0.1 0,0.68 0.03,1.293 l 0.04,1.114 -0.334,0 c -0.248,0 -0.352,-0.02 -0.405,-0.08 l 0,0 z m 6,-2.477 c 0,-0.09 -0.02,-0.154 -0.05,-0.154 -0.03,0 -0.05,0.07 -0.05,0.154 0,0.08 0.02,0.154 0.05,0.154 0.03,0 0.05,-0.07 0.05,-0.154 z m 0,-6.89 c 0,-0.07 -0.02,-0.128 -0.05,-0.128 -0.03,0 -0.05,0.06 -0.05,0.128 0,0.07 0.02,0.128 0.05,0.128 0.03,0 0.05,-0.06 0.05,-0.128 z m -5.701,-1.953 c -0.03,-0.33 -0.111,-0.48 -0.246,-0.48 -0.1,0 -0.1,0 -0.02,0.114 0.05,0.07 0.08,0.224 0.08,0.401 0,0.32 0.03,0.385 0.143,0.293 0.06,-0.05 0.07,-0.132 0.05,-0.328 z m 5.435,-5.321 c 0,-3.529 -0.03,-4.851 -0.123,-4.943 -0.04,-0.04 -0.172,0.02 -0.456,0.208 -0.617,0.403 -4.526,3.364 -4.531,3.432 0,0.06 4.396,4.451 4.71,4.697 l 0.333,0.261 0.03,-0.137 c 0.02,-0.08 0.03,-1.659 0.03,-3.518 z m 0.574,-5.606 c 0,-0.06 -0.02,-0.114 -0.05,-0.131 -0.03,-0.02 -0.05,0.02 -0.05,0.1 0,0.07 0.02,0.131 0.05,0.131 0.03,0 0.05,-0.04 0.05,-0.1 z"
         id="path3957"
         inkscape:connector-curvature="0"
         transform="translate(84.1325,-4.20662)" />
      <path
         style="fill:#0000ff;fill-opacity:1;stroke:#000000;stroke-width:0.01024500000000000;stroke-linecap:round;stroke-linejoin:round;stroke-miterlimit:4;stroke-opacity:1;stroke-dasharray:none"
         d="m 337.12,529.231 c -0.424,-0.06 -0.487,-0.09 -0.362,-0.158 0.1,-0.05 0.1,-0.06 0,-0.125 -0.09,-0.06 -0.09,-0.07 0,-0.07 0.08,0 0.08,-0.03 0.05,-0.192 -0.06,-0.299 -0.03,-7.373 0.03,-8.03 0.03,-0.31 0.06,-0.598 0.05,-0.64 -0.03,-0.373 -0.01,-0.479 0.106,-0.575 0.121,-0.1 0.124,-0.119 0.125,-0.867 10e-4,-0.758 0,-0.768 -0.127,-0.865 -0.07,-0.05 -0.103,-0.1 -0.07,-0.1 0.07,-0 0.175,-0.228 0.175,-0.39 0,-0.07 -0.06,-0.181 -0.128,-0.247 -0.08,-0.07 -0.128,-0.175 -0.129,-0.266 0,-0.08 -0.03,-0.214 -0.08,-0.295 -0.05,-0.09 -0.08,-0.289 -0.08,-0.53 0,-0.34 0.01,-0.386 0.102,-0.409 0.137,-0.04 0.137,-0.22 0,-0.22 -0.123,0 -0.135,-0.08 -0.02,-0.124 0.08,-0.03 0.08,-0.04 0,-0.125 -0.118,-0.13 -0.108,-0.318 0.02,-0.351 0.134,-0.03 0.133,-0.117 -10e-4,-0.117 -0.149,0 -0.172,-0.111 -0.1,-0.474 0.05,-0.243 0.08,-1.751 0.108,-6.211 0.02,-3.24 0.06,-6.468 0.07,-7.172 0.02,-0.814 0,-1.557 -0.03,-2.041 -0.07,-0.899 -0.06,-0.926 0.361,-0.916 0.338,0 0.449,0.05 0.488,0.168 0.06,0.196 0.11,3.768 0.06,4.659 -0.03,0.493 -0.04,1.436 -0.02,2.097 0.02,1.046 0.04,1.208 0.111,1.263 0.16,0.117 0.389,-0.01 0.858,-0.477 0.248,-0.247 0.45,-0.424 0.45,-0.395 0,0.03 -0.08,0.132 -0.186,0.23 -0.327,0.309 -1.147,1.29 -1.176,1.405 -0.05,0.202 0.213,0.695 1.19,2.229 0.225,0.352 0.425,0.669 0.447,0.704 0.02,0.04 0,0.06 -0.04,0.06 -0.04,0 -0.08,-0.03 -0.08,-0.08 0,-0.04 -0.02,-0.08 -0.05,-0.08 -0.03,0 -0.05,-0.04 -0.05,-0.08 0,-0.04 -0.03,-0.08 -0.07,-0.08 -0.05,0 -0.06,-0.04 -0.05,-0.103 0.02,-0.07 0,-0.102 -0.05,-0.102 -0.05,0 -0.07,-0.03 -0.05,-0.08 0.02,-0.05 -10e-4,-0.08 -0.06,-0.08 -0.05,0 -0.08,-0.03 -0.07,-0.09 0.01,-0.06 -0.01,-0.08 -0.07,-0.08 -0.06,0.01 -0.08,-0.01 -0.06,-0.09 0.01,-0.06 -0.02,-0.142 -0.08,-0.206 -0.06,-0.06 -0.107,-0.143 -0.107,-0.187 0,-0.04 -0.02,-0.07 -0.05,-0.05 -0.03,0.02 -0.05,0 -0.05,-0.04 0,-0.121 -0.302,-0.551 -0.386,-0.551 -0.05,0 -0.07,0.02 -0.05,0.05 0.02,0.03 -0.03,0.127 -0.107,0.218 l -0.14,0.165 0.05,3.33 c 0.05,3.758 0.05,3.792 0,5.302 -0.06,1.619 0.01,1.759 0.58,1.146 0.239,-0.26 0.315,-0.319 0.29,-0.224 -0.02,0.07 -0.08,0.159 -0.133,0.198 -0.106,0.08 -0.132,0.211 -0.04,0.211 0.04,0 0.04,0.02 0,0.08 -0.04,0.04 -0.12,0.08 -0.189,0.08 -0.102,0 -0.119,0.02 -0.09,0.103 0.02,0.07 0,0.102 -0.04,0.102 -0.121,0 -0.289,0.254 -0.289,0.436 0,0.09 -0.04,0.197 -0.08,0.234 -0.127,0.106 -0.06,0.394 0.187,0.819 0.405,0.695 2.931,3.988 3.169,4.133 0.06,0.03 0.163,0.177 0.233,0.316 0.186,0.367 0.497,0.564 0.632,0.401 0.11,-0.133 0.164,-2.116 0.164,-6.032 0,-2.211 -0.02,-4.145 -0.03,-4.297 -0.02,-0.208 -0.06,-0.282 -0.127,-0.3 -0.05,-0.01 -0.09,-0.06 -0.09,-0.1 0,-0.04 -0.04,-0.07 -0.09,-0.06 -0.134,0.03 -0.123,0.316 0.01,0.341 0.06,0.01 0.12,0.05 0.14,0.08 0.05,0.08 0.05,2.243 0,2.319 -0.02,0.03 -0.08,0.07 -0.14,0.08 -0.07,0.01 -0.108,0.07 -0.118,0.16 -0.02,0.163 0.102,0.239 0.221,0.14 0.06,-0.05 0.08,-0.04 0.08,0.118 0,0.259 -0.05,0.343 -0.185,0.343 -0.07,0 -0.123,0.03 -0.123,0.07 0,0.141 0.06,0.235 0.159,0.235 0.08,0 0.1,0.04 0.09,0.268 0,0.252 0,0.259 -0.05,0.105 -0.1,-0.334 -0.231,-0.246 -0.176,0.117 0.02,0.147 0.06,0.227 0.107,0.227 0.105,0 0.09,0.15 -0.03,0.351 l -0.105,0.171 0.105,0.202 c 0.14,0.267 0.133,0.318 -0.05,0.387 -0.1,0.04 -0.153,0.09 -0.153,0.159 0,0.126 0.128,0.236 0.23,0.197 0.14,-0.05 0.09,0.174 -0.08,0.316 -0.08,0.07 -0.153,0.177 -0.153,0.228 0,0.12 0.141,0.172 0.263,0.1 0.09,-0.06 0.1,-0.04 0.1,0.199 0,0.177 -0.02,0.256 -0.06,0.25 -0.308,-0.04 -0.366,0.104 -0.137,0.34 l 0.17,0.176 -0.172,0.177 c -0.148,0.154 -0.162,0.189 -0.102,0.261 0.04,0.05 0.117,0.07 0.187,0.06 0.113,-0.02 0.118,0 0.114,0.265 0,0.158 -0.01,0.259 -0.03,0.223 -0.03,-0.08 -0.254,-0.09 -0.299,-0.01 -0.02,0.03 -0.05,0.05 -0.07,0.05 -0.02,0 -0.06,-1.481 -0.07,-3.291 -0.02,-2.198 -0.05,-3.385 -0.09,-3.573 -0.07,-0.333 -0.07,-0.335 -0.02,-1.019 0.04,-0.486 0.05,-0.554 0.21,-0.787 0.09,-0.139 0.171,-0.298 0.171,-0.351 0,-0.06 0.04,-0.1 0.08,-0.1 0.08,0 0.08,-0.06 0,-0.269 -0.03,-0.07 -0.01,-0.09 0.05,-0.09 0.1,0 0.07,-0.172 -0.06,-0.317 -0.04,-0.05 -0.06,-0.113 -0.04,-0.146 0.03,-0.05 0.05,-0.04 0.08,0 0.02,0.03 0.07,0.05 0.118,0.03 0.109,-0.04 0.152,-0.394 0.128,-1.04 -0.02,-0.466 -0.03,-0.554 -0.12,-0.617 -0.134,-0.1 -0.252,-0.07 -0.271,0.07 -0.01,0.07 0.03,0.139 0.11,0.193 0.207,0.136 0.229,0.437 0.03,0.437 -0.1,0 -0.181,0.167 -0.127,0.255 0.02,0.03 0.06,0.05 0.1,0.05 0.04,0 0.1,0.04 0.131,0.08 0.05,0.06 0.05,0.101 -0.02,0.205 -0.05,0.07 -0.118,0.128 -0.158,0.128 -0.204,0 -0.206,-0.05 -0.206,-4.953 0,-3.614 -0.01,-4.738 -0.06,-4.785 -0.09,-0.09 -0.259,0.06 -1.241,1.047 -0.463,0.468 -0.852,0.841 -0.865,0.828 -0.02,-0.02 0.826,-0.952 1.71,-1.87 0.258,-0.268 0.479,-0.519 0.491,-0.558 0.02,-0.06 0.04,-0.06 0.137,-0.01 0.142,0.07 0.245,0.03 0.159,-0.08 -0.03,-0.04 -0.1,-0.07 -0.139,-0.07 -0.04,0 -0.455,-0.127 -0.914,-0.282 -0.459,-0.155 -0.876,-0.284 -0.926,-0.286 -0.05,0 0.09,-0.04 0.313,-0.08 0.347,-0.06 0.417,-0.06 0.487,-10e-4 0.131,0.114 0.4,0.237 0.521,0.237 0.06,0 0.222,0.04 0.358,0.09 0.136,0.05 0.266,0.07 0.288,0.05 0.02,-0.02 -0.09,-0.166 -0.249,-0.319 -0.209,-0.2 -0.33,-0.278 -0.435,-0.28 -0.116,0 -0.09,-0.02 0.135,-0.102 0.153,-0.06 0.289,-0.101 0.3,-0.101 0.01,0 0,-0.03 -0.03,-0.06 -0.03,-0.04 -0.06,-0.168 -0.08,-0.294 -0.01,-0.127 -0.03,-0.277 -0.04,-0.333 0,-0.06 0,-0.249 0,-0.427 0,-0.277 0.02,-0.321 0.1,-0.306 0.05,0 0.12,0.08 0.158,0.16 0.08,0.173 0.188,0.222 0.291,0.137 0.101,-0.08 0.1,-0.142 -0.01,-0.164 -0.08,-0.02 -0.07,-0.04 0.06,-0.158 0.262,-0.245 0.28,-0.21 0.297,0.566 0.04,1.823 -0.15,27.349 -0.207,27.751 -0.06,0.449 -0.115,0.09 -0.142,-0.999 -0.01,-0.549 -0.04,-1.051 -0.05,-1.114 -0.04,-0.182 -0.12,-0.135 -0.156,0.09 -0.03,0.172 -0.05,0.205 -0.154,0.205 -0.167,0 -0.163,0.205 0,0.389 0.09,0.1 0.126,0.193 0.124,0.322 0,0.102 -0.02,0.156 -0.03,0.121 -0.04,-0.09 -0.109,-0.08 -0.171,0.04 -0.07,0.128 0.02,0.328 0.132,0.287 0.06,-0.02 0.07,0.03 0.07,0.239 0,0.401 -0.05,0.524 -0.199,0.524 -0.09,0 -0.134,-0.04 -0.159,-0.128 -0.04,-0.157 -0.04,-1.26 0,-2.024 0.03,-0.498 0.04,-0.562 0.121,-0.548 0.199,0.03 0.07,-0.284 -0.339,-0.826 -0.191,-0.255 -0.304,-0.358 -0.414,-0.38 -0.118,-0.02 -0.131,-0.04 -0.06,-0.06 0.08,-0.03 0.06,-0.08 -0.151,-0.388 -0.307,-0.453 -0.778,-0.997 -0.863,-0.997 -0.04,0 -0.06,-0.05 -0.04,-0.12 0.02,-0.09 -0.02,-0.156 -0.122,-0.247 -0.08,-0.07 -0.181,-0.194 -0.224,-0.276 -0.04,-0.08 -0.124,-0.174 -0.179,-0.203 -0.06,-0.03 -0.108,-0.09 -0.117,-0.129 -0.04,-0.174 -0.169,-0.306 -0.305,-0.307 -0.105,0 -0.122,-0.01 -0.07,-0.05 0.09,-0.06 0.05,-0.142 -0.306,-0.63 -0.283,-0.385 -0.426,-0.442 -0.515,-0.206 -0.133,0.35 -0.196,4.844 -0.07,5.149 0.05,0.13 0.377,0.118 1.724,-0.06 0.627,-0.08 1.245,-0.151 1.373,-0.148 l 0.232,0 -0.329,0.07 c -0.695,0.152 -2.491,0.389 -2.732,0.361 -0.134,-0.02 -0.248,-0.02 -0.253,-0.02 0,0 -0.02,0.741 -0.04,1.634 -0.02,0.979 -0.05,1.643 -0.08,1.672 -0.09,0.08 -0.247,0.1 -0.564,0.05 l 0,0 z m 0.17,-0.262 c -0.01,-0.127 -0.04,-0.167 -0.118,-0.167 -0.122,0 -0.175,0.221 -0.07,0.288 0.141,0.09 0.204,0.05 0.187,-0.121 z m 0.257,-0.327 c -0.03,-0.13 -0.196,-0.159 -0.196,-0.03 0,0.123 0.108,0.234 0.169,0.173 0.03,-0.03 0.04,-0.09 0.03,-0.14 l 0,0 z m -0.198,-0.427 c 0.06,-0.04 0.06,-0.06 -0.02,-0.153 -0.159,-0.175 -0.302,-0.109 -0.244,0.113 0.02,0.1 0.146,0.115 0.265,0.04 z m 0.05,-0.848 c 0.05,-0.06 0.05,-0.1 -0.03,-0.18 -0.176,-0.194 -0.4,-0.07 -0.279,0.159 0.06,0.118 0.217,0.129 0.306,0.02 z m 0.13,-0.571 c -0.03,-0.116 -0.05,-0.128 -0.08,-0.06 -0.06,0.106 0,0.327 0.07,0.259 0.03,-0.03 0.04,-0.116 0.02,-0.195 z m 0.02,-0.478 c 0,-0.127 -0.09,-0.183 -0.134,-0.08 -0.04,0.105 0.02,0.249 0.08,0.208 0.03,-0.02 0.05,-0.08 0.05,-0.128 z m 4.529,-1.011 c -0.09,-0.138 -0.175,-0.137 -0.175,0 0,0.137 0.09,0.205 0.178,0.129 0.03,-0.03 0.03,-0.08 0,-0.132 l 0,0 z m -4.888,-1.167 c 0,-0.07 -0.02,-0.128 -0.05,-0.128 -0.03,0 -0.05,0.06 -0.05,0.128 0,0.07 0.02,0.129 0.05,0.129 0.03,0 0.05,-0.06 0.05,-0.129 z m 0.285,-4.709 c 0.08,-0.06 0.09,-0.09 0.04,-0.167 -0.03,-0.05 -0.09,-0.1 -0.141,-0.109 -0.07,-0.01 -0.08,0.02 -0.08,0.167 0,0.2 0.03,0.22 0.182,0.109 z M 337.3,516.13 c 0,-0.148 -0.108,-0.291 -0.171,-0.228 -0.06,0.05 -0.04,0.248 0.03,0.314 0.1,0.1 0.144,0.07 0.144,-0.09 z m 0,-1.545 c 0,-0.09 -0.164,-0.305 -0.237,-0.305 -0.09,0 -0.09,0.03 0.04,0.209 0.107,0.15 0.202,0.195 0.202,0.1 z m 4.866,-0.635 c 0,-0.07 -0.02,-0.138 -0.05,-0.154 -0.06,-0.04 -0.112,0.104 -0.07,0.202 0.05,0.12 0.121,0.09 0.121,-0.05 z m -0.04,-0.961 c -0.07,-0.08 -0.139,0.07 -0.09,0.202 0.03,0.08 0.04,0.08 0.09,-0.03 0.04,-0.09 0.04,-0.134 0,-0.175 l 0,0 z m -4.928,-0.938 c 0,-0.07 -0.02,-0.128 -0.05,-0.128 -0.03,0 -0.05,0.06 -0.05,0.128 0,0.07 0.02,0.128 0.05,0.128 0.03,0 0.05,-0.06 0.05,-0.128 z m 0,-0.768 c 0,-0.07 -0.02,-0.128 -0.05,-0.128 -0.03,0 -0.05,0.06 -0.05,0.128 0,0.07 0.02,0.128 0.05,0.128 0.03,0 0.05,-0.06 0.05,-0.128 z m 4.94,-0.401 c -0.02,-0.05 -0.05,-0.09 -0.08,-0.09 -0.05,0 -0.06,0.172 -0.01,0.223 0.06,0.06 0.125,-0.05 0.09,-0.137 l 0,0 z m -0.109,-0.245 c 0.08,-0.123 0,-0.251 -0.141,-0.251 -0.1,0 -0.137,0.03 -0.162,0.134 -0.05,0.212 0.185,0.304 0.303,0.117 l 0,0 z m 0.109,-0.524 c -0.02,-0.05 -0.05,-0.08 -0.08,-0.08 -0.05,0 -0.06,0.171 -0.01,0.223 0.06,0.06 0.125,-0.05 0.09,-0.138 l 0,0 z m -0.151,-0.168 c 0.165,-0.165 -0.03,-0.372 -0.206,-0.223 -0.09,0.08 -0.1,0.237 -0.01,0.272 0.106,0.04 0.13,0.04 0.217,-0.05 z m 0.03,-0.815 c 0,-0.07 -0.03,-0.143 -0.08,-0.16 -0.101,-0.04 -0.23,0.07 -0.23,0.193 0,0.07 0.04,0.1 0.154,0.1 0.13,0 0.154,-0.02 0.154,-0.129 l 0,0 z m 0,-0.615 c 0.05,-0.06 0.05,-0.108 0,-0.204 -0.05,-0.103 -0.08,-0.118 -0.174,-0.08 -0.136,0.05 -0.177,0.184 -0.09,0.29 0.08,0.1 0.173,0.09 0.255,0 l 0,0 z m -0.03,-0.797 c 0,-0.203 -0.102,-0.234 -0.214,-0.06 -0.06,0.09 -0.06,0.119 0.01,0.194 0.122,0.123 0.201,0.07 0.201,-0.129 l 0,0 z m 0.02,-0.653 c 0.06,-0.105 0.02,-0.316 -0.06,-0.316 -0.107,0 -0.247,0.112 -0.247,0.197 0,0.197 0.216,0.282 0.303,0.119 z m 0,-0.789 c -0.02,-0.185 -0.173,-0.264 -0.207,-0.106 -0.03,0.157 0.02,0.272 0.123,0.272 0.08,0 0.1,-0.03 0.08,-0.166 z m 0.03,-0.674 c 0.05,-0.123 -0.02,-0.287 -0.123,-0.287 -0.109,0 -0.222,0.178 -0.181,0.286 0.04,0.09 0.268,0.09 0.304,10e-4 l 0,0 z m -0.04,-0.774 c 0,-0.101 -0.03,-0.157 -0.09,-0.168 -0.09,-0.02 -0.14,0.106 -0.103,0.26 0.04,0.154 0.188,0.08 0.188,-0.09 z m -4.79,-0.02 c 0,-0.06 -0.02,-0.114 -0.05,-0.131 -0.03,-0.02 -0.05,0.02 -0.05,0.1 0,0.07 0.02,0.131 0.05,0.131 0.03,0 0.05,-0.04 0.05,-0.1 z m 4.762,-0.615 c 0.09,-0.161 0.07,-0.31 -0.04,-0.31 -0.06,0 -0.105,0.05 -0.123,0.137 -0.05,0.25 0.06,0.366 0.166,0.173 z m 0.133,-0.743 c 0.07,-0.07 0.125,-0.173 0.125,-0.231 0,-0.11 -0.07,-0.141 -0.128,-0.05 -0.02,0.03 -0.08,0.05 -0.151,0.05 -0.142,0 -0.202,0.122 -0.128,0.26 0.07,0.13 0.13,0.124 0.282,-0.03 z m 0.177,-0.593 c 0,-0.06 -0.05,-0.128 -0.128,-0.162 -0.07,-0.03 -0.128,-0.09 -0.128,-0.127 0,-0.103 -0.143,-0.08 -0.203,0.03 -0.08,0.149 -0.01,0.26 0.157,0.26 0.08,0 0.148,0.02 0.148,0.05 0,0.03 0.03,0.05 0.08,0.05 0.04,0 0.08,-0.05 0.08,-0.104 z m -0.03,-0.528 c 0,-0.132 -0.02,-0.245 -0.05,-0.252 -0.07,-0.02 -0.139,0.269 -0.104,0.413 0.05,0.205 0.152,0.1 0.152,-0.161 l 0,0 z m -5.046,0.09 c 0,-0.07 -0.02,-0.128 -0.05,-0.128 -0.03,0 -0.05,0.06 -0.05,0.128 0,0.07 0.02,0.128 0.05,0.128 0.03,0 0.05,-0.06 0.05,-0.128 z m 4.968,-1.025 c 0,-0.112 -0.02,-0.239 -0.05,-0.282 -0.04,-0.05 -0.05,0.03 -0.05,0.282 0,0.25 0.01,0.336 0.05,0.282 0.03,-0.04 0.05,-0.169 0.05,-0.282 z m 0,-0.845 c 0,-0.08 -0.02,-0.162 -0.05,-0.179 -0.03,-0.02 -0.05,0.05 -0.05,0.179 0,0.128 0.02,0.198 0.05,0.179 0.03,-0.02 0.05,-0.1 0.05,-0.179 z m -4.893,-0.561 c 0.05,-0.1 0.06,-0.161 0.02,-0.183 -0.08,-0.05 -0.202,0.08 -0.202,0.212 0,0.167 0.08,0.153 0.178,-0.03 l 0,0 z m 0.02,-0.732 c -0.01,-0.159 -0.04,-0.222 -0.106,-0.234 -0.07,-0.01 -0.09,0.02 -0.09,0.156 0,0.165 0.07,0.295 0.167,0.295 0.02,0 0.04,-0.1 0.03,-0.217 l 0,0 z m 0.03,-0.487 c 0.05,-0.165 -0.04,-0.497 -0.135,-0.516 -0.105,-0.02 -0.117,0.119 -0.04,0.413 0.06,0.206 0.128,0.249 0.17,0.103 z"
         id="path3959"
         inkscape:connector-curvature="0"
         transform="translate(84.1325,-4.20662)" />
      <path
         style="fill:#ff0000;fill-opacity:1;stroke:#000000;stroke-width:0.010245;stroke-linecap:round;stroke-linejoin:round;stroke-miterlimit:4;stroke-opacity:1;stroke-dasharray:none"
         d="m 317.936,515.989 c 0,-0.05 -0.09,-0.07 -0.348,-0.07 -0.21,0 -0.374,-0.03 -0.412,-0.06 -0.09,-0.09 -1.229,-0.106 -3.389,-0.05 -0.972,0.03 -1.77,0.04 -1.774,0.04 0,0 -0.02,-0.156 -0.04,-0.339 l -0.03,-0.333 1.296,-0.01 c 1.447,-0.02 3.313,-0.126 3.853,-0.226 0.28,-0.05 0.359,-0.05 0.376,0 0.03,0.1 1.016,0.08 8.043,-0.142 7.337,-0.233 10.406,-0.345 10.672,-0.39 0.176,-0.03 0.186,-0.02 0.218,0.135 0.02,0.09 0.03,0.379 0.03,0.64 l 0,0.475 -0.628,0.03 c -0.345,0.02 -2.114,0.05 -3.931,0.08 -4.241,0.07 -13.138,0.247 -13.588,0.274 -0.268,0.01 -0.346,0 -0.346,-0.05 z"
         id="path3961"
         inkscape:connector-curvature="0"
         transform="translate(84.1325,-4.20662)" />
      <path
         style="fill:#ff0000;fill-opacity:1;stroke:#000000;stroke-width:0.010245;stroke-linecap:round;stroke-linejoin:round;stroke-miterlimit:4;stroke-opacity:1;stroke-dasharray:none"
         d="m 311.994,502.732 c 0,-0.116 0.02,-0.125 0.346,-0.152 0.874,-0.07 1.002,-0.09 0.93,-0.141 -0.05,-0.03 0.02,-0.04 0.21,-0.03 0.178,0.01 0.278,0 0.272,-0.04 0,-0.03 0.127,-0.08 0.294,-0.117 0.288,-0.06 0.418,-0.161 0.207,-0.161 -0.1,0 -1.723,0.229 -2.041,0.288 -0.152,0.03 -0.167,0.02 -0.167,-0.1 0,-0.123 0.02,-0.13 0.5,-0.189 0.669,-0.08 2.689,-0.384 7.697,-1.151 2.296,-0.352 6.007,-0.906 8.247,-1.231 7.164,-1.042 7.766,-1.137 7.998,-1.261 0.08,-0.04 0.09,-0.02 0.08,0.17 0,0.12 -0.03,0.259 -0.06,0.31 -0.03,0.06 -0.01,0.113 0.05,0.158 0.08,0.06 0.08,0.08 0.03,0.182 -0.05,0.08 -0.05,0.132 0,0.173 0.03,0.03 0.05,0.126 0.05,0.212 l 0,0.156 -0.05,-0.146 -0.05,-0.146 -0.391,0.03 c -0.814,0.07 -3.41,0.42 -9.56,1.286 -7.464,1.052 -9.686,1.354 -9.955,1.354 -0.109,0 -0.265,0.03 -0.346,0.07 -0.08,0.04 -0.344,0.09 -0.582,0.105 -0.238,0.02 -0.457,0.05 -0.486,0.08 -0.05,0.04 -0.297,0.06 -0.938,0.06 -0.233,0 -0.32,0.02 -0.32,0.07 0,0.05 -0.15,0.08 -0.589,0.105 -0.324,0.02 -0.589,0.06 -0.589,0.09 0,0.03 -0.129,0.04 -0.304,0.03 -0.166,-0.01 -0.32,0 -0.341,0.02 -0.07,0.07 -0.124,0.04 -0.124,-0.09 z"
         id="path3963"
         inkscape:connector-curvature="0"
         transform="translate(84.1325,-4.20662)" />
      <path
         style="fill:#ff0000;fill-opacity:1;stroke:#000000;stroke-width:0.010245;stroke-linecap:round;stroke-linejoin:round;stroke-miterlimit:4;stroke-opacity:1;stroke-dasharray:none"
         d=""
         id="path3965"
         inkscape:connector-curvature="0"
         transform="translate(84.1325,-4.20662)" />
      <path
         style="fill:#ff0000;fill-opacity:1;stroke:#000000;stroke-width:0.010245;stroke-linecap:round;stroke-linejoin:round;stroke-miterlimit:4;stroke-opacity:1;stroke-dasharray:none"
         d="m 318.519,503.956 c 0.03,-0.07 -0.01,-0.08 -0.289,-0.05 -0.175,0.02 -0.348,0.04 -0.383,0.05 -0.04,0.01 -0.06,-0.02 -0.06,-0.08 0,-0.08 0.03,-0.101 0.141,-0.101 0.208,0 0.525,-0.1 0.525,-0.163 0,-0.04 -0.107,-0.05 -0.333,-0.03 -0.298,0.03 -0.333,0.02 -0.333,-0.06 0,-0.08 0.08,-0.101 0.55,-0.155 0.303,-0.04 4.539,-0.576 9.413,-1.203 l 8.862,-1.139 0.02,0.283 c 0.03,0.476 0,0.488 -0.748,0.509 -0.358,0.01 -0.659,0.04 -0.668,0.06 0,0.03 -0.141,0.05 -0.291,0.05 -0.151,0 -0.287,0.02 -0.302,0.04 -0.05,0.07 -0.989,0.183 -1.58,0.184 -0.437,10e-4 -0.546,0.02 -0.525,0.07 0.02,0.05 -0.06,0.06 -0.384,0.05 -0.226,0 -0.41,0 -0.41,0.02 0,0.02 -0.14,0.04 -0.31,0.04 -0.194,0 -0.299,0.02 -0.279,0.05 0.02,0.03 -0.06,0.05 -0.189,0.05 -0.121,0 -0.417,0.03 -0.656,0.08 -0.404,0.07 -6.123,0.795 -9.117,1.153 -0.718,0.09 -1.548,0.17 -1.844,0.187 -0.297,0.02 -0.562,0.05 -0.591,0.07 -0.03,0.02 -0.09,0.05 -0.146,0.07 -0.07,0.03 -0.09,0.02 -0.06,-0.04 l 0,0 z"
         id="path3967"
         inkscape:connector-curvature="0"
         transform="translate(84.1325,-4.20662)" />
      <path
         style="fill:#ff0000;fill-opacity:1;stroke:#000000;stroke-width:0.010245;stroke-linecap:round;stroke-linejoin:round;stroke-miterlimit:4;stroke-opacity:1;stroke-dasharray:none"
         d="m 338.102,501.475 c -0.02,-0.08 -0.05,-0.307 -0.07,-0.496 -0.03,-0.321 -0.03,-0.34 0.06,-0.306 0.172,0.07 0.902,0.04 1.866,-0.07 0.522,-0.06 0.986,-0.118 1.033,-0.132 0.06,-0.02 0.12,0.03 0.192,0.149 0.153,0.248 0.138,0.291 -0.102,0.291 -0.167,0 -0.216,0.02 -0.237,0.102 -0.01,0.06 -0.03,0.102 -0.04,0.102 0,0 -0.21,0.04 -0.451,0.08 -0.242,0.04 -0.474,0.06 -0.517,0.05 -0.04,-0.02 -0.143,0.01 -0.221,0.07 -0.154,0.107 -0.44,0.182 -1.024,0.266 -0.485,0.07 -0.459,0.07 -0.494,-0.1 l 0,0 z"
         id="path3969"
         inkscape:connector-curvature="0"
         transform="translate(84.1325,-4.20662)" />
      <path
         style="fill:#ff0000;fill-opacity:1;stroke:#000000;stroke-width:0.010245;stroke-linecap:round;stroke-linejoin:round;stroke-miterlimit:4;stroke-opacity:1;stroke-dasharray:none"
         d="m 338.119,515.265 0,-0.373 1.243,0.01 c 1.075,0.01 1.239,0.02 1.22,0.09 -0.01,0.04 -0.02,0.128 -0.02,0.192 0,0.106 -0.02,0.115 -0.286,0.117 -0.389,0 -0.732,0.07 -0.798,0.165 -0.04,0.05 -0.238,0.09 -0.708,0.12 l -0.653,0.05 0,-0.372 z"
         id="path3971"
         inkscape:connector-curvature="0"
         transform="translate(84.1325,-4.20662)" />
      <path
         style="fill:#0000ff;fill-opacity:1;stroke:#000000;stroke-width:0.010245;stroke-linecap:round;stroke-linejoin:round;stroke-miterlimit:4;stroke-opacity:1;stroke-dasharray:none"
         d="m 341.584,524.01 c -0.02,-0.09 -0.03,-0.405 -0.03,-0.699 0,-0.487 0,-0.528 0.08,-0.455 0.09,0.1 0.102,0.1 0.229,0.03 0.09,-0.05 0.1,-0.04 0.07,0.115 -0.05,0.267 -0.06,0.287 -0.183,0.305 -0.09,0.01 -0.123,0.06 -0.135,0.155 -0.01,0.11 0.02,0.154 0.144,0.22 0.183,0.1 0.195,0.26 0.03,0.354 -0.06,0.03 -0.116,0.07 -0.134,0.1 -0.02,0.02 -0.05,-0.03 -0.06,-0.122 z"
         id="path3973"
         inkscape:connector-curvature="0"
         transform="translate(84.1325,-4.20662)" />
      <path
         style="fill:#0000ff;fill-opacity:1;stroke:#000000;stroke-width:0.010245;stroke-linecap:round;stroke-linejoin:round;stroke-miterlimit:4;stroke-opacity:1;stroke-dasharray:none"
         d="m 339.81,516.095 c 0,-0.01 0.04,-0.1 0.08,-0.183 0.05,-0.09 0.07,-0.186 0.06,-0.223 -0.01,-0.04 0.02,-0.08 0.09,-0.1 0.182,-0.05 0.198,-0.04 0.115,0.08 -0.101,0.144 -0.102,0.213 0,0.175 0.143,-0.06 0.08,0.07 -0.09,0.173 -0.168,0.102 -0.243,0.125 -0.243,0.07 z"
         id="path3975"
         inkscape:connector-curvature="0"
         transform="translate(84.1325,-4.20662)" />
      <path
         style="fill:#0000ff;fill-opacity:1;stroke:#000000;stroke-width:0.010245;stroke-linecap:round;stroke-linejoin:round;stroke-miterlimit:4;stroke-opacity:1;stroke-dasharray:none"
         d=""
         id="path3977"
         inkscape:connector-curvature="0"
         transform="translate(84.1325,-4.20662)" />
      <path
         style="fill:#0000ff;fill-opacity:1;stroke:#000000;stroke-width:0.010245;stroke-linecap:round;stroke-linejoin:round;stroke-miterlimit:4;stroke-opacity:1;stroke-dasharray:none"
         d=""
         id="path3979"
         inkscape:connector-curvature="0"
         transform="translate(84.1325,-4.20662)" />
      <path
         style="fill:#0000ff;fill-opacity:1;stroke:#000000;stroke-width:0.010245;stroke-linecap:round;stroke-linejoin:round;stroke-miterlimit:4;stroke-opacity:1;stroke-dasharray:none"
         d="m 341.365,512.666 c 0.02,-0.05 0,-0.08 -0.05,-0.08 -0.04,0 -0.07,-0.04 -0.07,-0.08 0,-0.04 -0.02,-0.08 -0.05,-0.08 -0.03,0 -0.05,-0.05 -0.05,-0.104 0,-0.07 -0.03,-0.1 -0.09,-0.09 -0.05,0 -0.08,-0.01 -0.08,-0.05 0,-0.04 -0.03,-0.126 -0.09,-0.198 -0.06,-0.07 -0.09,-0.152 -0.07,-0.178 0.02,-0.03 0.112,0.06 0.214,0.198 0.101,0.135 0.215,0.264 0.252,0.286 0.07,0.04 0.22,0.306 0.22,0.392 0,0.03 -0.04,0.05 -0.08,0.05 -0.05,0 -0.07,-0.03 -0.05,-0.08 z"
         id="path3981"
         inkscape:connector-curvature="0"
         transform="translate(84.1325,-4.20662)" />
    </g>
  </g>
</svg>
