<?xml version="1.0" encoding="UTF-8" standalone="no"?>
<!-- Created with Inkscape (http://www.inkscape.org/) -->

<svg
   xmlns:dc="http://purl.org/dc/elements/1.1/"
   xmlns:cc="http://creativecommons.org/ns#"
   xmlns:rdf="http://www.w3.org/1999/02/22-rdf-syntax-ns#"
   xmlns:svg="http://www.w3.org/2000/svg"
   xmlns="http://www.w3.org/2000/svg"
   xmlns:sodipodi="http://sodipodi.sourceforge.net/DTD/sodipodi-0.dtd"
   xmlns:inkscape="http://www.inkscape.org/namespaces/inkscape"
   width="744.09448819"
   height="1052.3622047"
   id="svg2"
   version="1.1"
   inkscape:version="0.48.2 r9819"
   inkscape:export-filename="/Users/jeffw/Source/eclipse/workspace-escontroller/CodeShelfUX/src/images/staging-icon.png"
   inkscape:export-xdpi="11.9765"
   inkscape:export-ydpi="11.9765"
   sodipodi:docname="New document 1">
  <defs
     id="defs4" />
  <sodipodi:namedview
     id="base"
     pagecolor="#ffffff"
     bordercolor="#666666"
     borderopacity="1.0"
     inkscape:pageopacity="0.0"
     inkscape:pageshadow="2"
     inkscape:zoom="0.989949"
     inkscape:cx="375"
     inkscape:cy="520"
     inkscape:document-units="px"
     inkscape:current-layer="layer1"
     showgrid="false"
     inkscape:window-width="1440"
     inkscape:window-height="852"
     inkscape:window-x="0"
     inkscape:window-y="0"
     inkscape:window-maximized="0" />
  <metadata
     id="metadata7">
    <rdf:RDF>
      <cc:Work
         rdf:about="">
        <dc:format>image/svg+xml</dc:format>
        <dc:type
           rdf:resource="http://purl.org/dc/dcmitype/StillImage" />
        <dc:title></dc:title>
      </cc:Work>
    </rdf:RDF>
  </metadata>
  <g
     inkscape:label="Layer 1"
     inkscape:groupmode="layer"
     id="layer1">
    <path
       inkscape:connector-curvature="0"
       id="path3010"
       d="m 348.539,596.22 c -3.02,-0.438 -5.965,-1.493 -6.603,-2.365 -0.633,-0.865 -1.443,-5.029 -1.8,-9.252 -0.357,-4.224 -0.831,-7.862 -1.054,-8.084 -0.223,-0.223 -8.21,1.938 -17.748,4.803 l -17.344,5.208 -7,-1.385 -7,-1.385 -0.301,-7 c -0.165,-3.85 -0.627,-7.326 -1.025,-7.726 -0.399,-0.399 -7.464,1.06 -15.7,3.242 -15.444,4.091 -21.301,4.715 -27.667,2.947 -4.611,-1.28 -4.991,-2.453 -4.944,-15.275 0.02,-5.603 -0.161,-37.789 -0.403,-71.524 -0.267,-37.327 -0.07,-62.024 0.503,-63.094 0.801,-1.498 2.984,-1.849 14.739,-2.369 7.589,-0.336 18.298,-1.084 23.798,-1.662 5.5,-0.579 18.1,-1.758 28,-2.621 9.9,-0.863 22.05,-2.016 27,-2.562 12.693,-1.4 71.591,-2.523 80,-1.526 3.85,0.456 19.811,1.045 35.468,1.308 17.231,0.29 28.955,0.883 29.702,1.503 0.955,0.793 1.211,13.711 1.13,57.001 -0.1,51.365 -0.247,56.156 -1.828,58.167 -1.363,1.733 -1.723,4.228 -1.722,11.938 0,5.815 -0.459,10.3 -1.138,11.118 -0.625,0.754 -5.069,2.762 -9.875,4.463 -23.274,8.237 -109.619,37.157 -110.61,37.047 -0.62,-0.07 -3.58,-0.48 -6.578,-0.915 z m 40.472,-22.681 10.979,-3.779 0.305,-4.196 0.305,-4.196 -3.805,0.535 c -2.093,0.295 -9.262,2.314 -15.931,4.488 l -12.126,3.952 -0.57,3.516 c -0.314,1.934 -0.335,4.131 -0.05,4.882 0.606,1.579 2.717,1.054 20.89,-5.202 z m 50.397,-16.751 c 5.67,-1.91 10.934,-3.99 11.696,-4.623 0.762,-0.632 1.386,-2.67 1.386,-4.527 0,-3.852 -0.961,-4.132 -6.73,-1.956 -2.073,0.781 -7.018,2.389 -10.988,3.573 -6.818,2.032 -7.254,2.339 -7.85,5.514 -0.618,3.296 -0.05,5.491 1.431,5.491 0.409,0 5.384,-1.563 11.055,-3.472 z M 358.219,427.656 c -0.332,-0.333 -1.195,-0.368 -1.916,-0.08 -0.798,0.319 -0.561,0.556 0.604,0.604 1.054,0.04 1.644,-0.193 1.312,-0.525 z m 39.271,-3.289 c 0,-1.987 -6.177,-2.75 -11,-1.358 -2.266,0.654 -2.126,0.779 1.5,1.344 6.282,0.979 9.5,0.983 9.5,0.01 z"
       style="fill:#dbcdb5" />
    <path
       inkscape:connector-curvature="0"
       id="path3008"
       d="m 349.116,595.317 c -6.439,-0.894 -7.622,-2.674 -7.641,-11.498 -0.02,-8.234 -0.849,-10.238 -3.627,-8.75 -1.043,0.558 -8.188,2.935 -15.877,5.281 -14.596,4.455 -23.028,5.354 -28.731,3.064 -2.631,-1.057 -2.75,-1.406 -2.75,-8.07 0,-3.831 -0.368,-7.193 -0.818,-7.471 -0.449,-0.278 -7.762,1.296 -16.25,3.499 -12.747,3.307 -16.619,3.929 -22.254,3.574 -3.752,-0.236 -7.217,-0.826 -7.702,-1.31 -1.476,-1.476 -2.078,-23.118 -2.405,-86.376 -0.201,-39.016 0.04,-60.944 0.681,-61.75 1.21,-1.524 18.584,-1.731 23.637,-0.282 3.427,0.983 26.212,3.403 42.611,4.525 4.95,0.339 13.275,1.235 18.5,1.991 5.225,0.757 15.35,1.908 22.5,2.559 12.778,1.162 13.316,1.127 31.5,-2.043 10.175,-1.773 24.8,-4.244 32.5,-5.49 7.7,-1.245 18.5,-3.178 24,-4.295 12.748,-2.588 38.764,-5.712 40.864,-4.906 1.446,0.555 1.604,6.108 1.601,56.271 0,51.784 -0.127,55.811 -1.779,57.91 -1.394,1.773 -1.829,4.48 -2.027,12.63 -0.138,5.705 -0.58,10.701 -0.983,11.104 -0.988,0.988 -4.673,2.266 -65.951,22.866 -29.301,9.851 -53.601,17.85 -54,17.776 -0.399,-0.07 -2.918,-0.437 -5.599,-0.809 z m 34.589,-19.154 c 8.407,-2.803 15.847,-5.558 16.535,-6.122 0.687,-0.564 1.25,-3.023 1.25,-5.465 l 0,-4.439 -4.75,0.697 c -4.62,0.678 -25.552,7.209 -27.942,8.719 -2.184,1.38 -2.875,11.707 -0.784,11.707 0.224,0 7.285,-2.294 15.691,-5.097 z M 271.49,561.212 c 0,-0.459 -0.489,-1.136 -1.087,-1.506 -1.389,-0.858 -3.346,1.044 -2.494,2.423 0.71,1.149 3.581,0.413 3.581,-0.917 z m 167.624,-3.47 c 12.226,-3.816 14.384,-5.214 14.361,-9.303 -0.03,-5.684 -0.88,-5.834 -12.657,-2.24 -5.955,1.818 -11.575,3.694 -12.488,4.17 -2.674,1.393 -3.636,10.891 -1.103,10.891 0.34,0 5.69,-1.583 11.887,-3.518 z"
       style="fill:#c7b396" />
    <path
       inkscape:connector-curvature="0"
       id="path3006"
       d="m 350.99,594.586 c -7.216,-0.901 -7.5,-1.103 -7.5,-5.345 0,-2.734 0.436,-3.981 1.392,-3.981 0.765,0 1.674,-1.125 2.019,-2.5 0.733,-2.92 1.75,-3.096 5.124,-0.885 1.657,1.086 2.465,2.541 2.465,4.441 0,3.796 1.438,4.45 6.275,2.853 2.791,-0.921 4.37,-2.157 5.047,-3.951 0.861,-2.282 2.824,-3.216 15.582,-7.415 19.281,-6.345 19.763,-6.613 20.58,-11.446 0.375,-2.221 0.209,-4.802 -0.38,-5.902 -1.029,-1.924 -1.152,-1.926 -7.825,-0.118 -3.728,1.01 -11.279,3.318 -16.779,5.13 -9.374,3.087 -10.032,3.481 -10.509,6.289 -0.383,2.251 -1.441,3.436 -4.25,4.758 -2.058,0.969 -3.741,2.298 -3.741,2.954 0,0.918 -0.275,0.917 -1.2,0 -0.66,-0.66 -2.313,-1.2 -3.674,-1.2 l -2.475,0 2.279,-2.426 c 2.881,-3.066 2.113,-4.324 -2.677,-4.39 -2.077,-0.03 -4.958,-0.502 -6.403,-1.051 -2.234,-0.849 -2.981,-0.621 -4.989,1.526 -3.311,3.541 -4.581,4.1 -17.708,7.798 -15.094,4.252 -18.947,4.781 -25.148,3.451 -3.909,-0.839 -5.037,-1.488 -4.785,-2.753 0.266,-1.339 1.317,-1.591 5.493,-1.319 l 5.164,0.337 0.653,-3.481 c 0.37,-1.972 0.17,-4.384 -0.461,-5.562 -0.973,-1.819 -0.788,-2.162 1.463,-2.727 3.46,-0.869 9.49,0.191 11.281,1.982 1.096,1.095 2.004,1.2 3.704,0.425 2.123,-0.967 5.489,-0.547 14.483,1.808 1.636,0.428 2.154,0.316 1.5,-0.324 -1.819,-1.778 -16.168,-4.826 -27.744,-5.892 -2.06,-0.19 -4.985,-0.979 -6.5,-1.754 -1.516,-0.775 -6.581,-1.915 -11.256,-2.533 -5.29,-0.699 -8.919,-1.688 -9.61,-2.619 -0.704,-0.948 -2.903,-1.527 -6,-1.58 -9.541,-0.165 -16.56,-1.469 -17.564,-3.263 -0.744,-1.329 -1.738,-1.573 -4.387,-1.076 -5.112,0.959 -8.094,-0.149 -9.24,-3.435 -0.642,-1.841 -0.859,-24.173 -0.606,-62.256 0.218,-32.662 0.398,-59.948 0.401,-60.636 0.01,-1.569 12.319,-1.708 20.12,-0.228 6.065,1.151 25.939,3.329 45.386,4.974 7.15,0.604 20.115,1.978 28.812,3.052 8.696,1.073 18.146,1.945 21,1.936 5.181,-0.02 19.807,-2.332 63.188,-10.009 12.65,-2.238 27.5,-4.713 33,-5.5 5.5,-0.787 12.925,-1.849 16.5,-2.36 5.582,-0.799 6.685,-0.697 7.809,0.727 2.05,2.597 0.602,109.952 -1.515,112.347 -1.504,1.7 -1.976,4.865 -2.506,16.792 -0.271,6.088 -0.469,6.569 -3.273,7.918 -3.7,1.779 -115.298,39.158 -116.294,38.951 -0.396,-0.08 -2.071,-0.318 -3.721,-0.524 z m 0.282,-7.172 c 0.287,-0.86 -0.194,-1.22 -1.334,-1 -0.98,0.191 -1.984,0.951 -2.23,1.692 -0.287,0.86 0.194,1.22 1.334,1 0.98,-0.191 1.984,-0.951 2.23,-1.692 z m 85.758,-28.248 c 5.478,-1.701 11.422,-3.778 13.21,-4.614 3.076,-1.439 3.25,-1.808 3.25,-6.906 0,-6.319 -0.346,-6.444 -9.5,-3.432 -3.3,1.086 -8.696,2.814 -11.99,3.84 l -5.991,1.866 -0.808,4.822 c -0.818,4.88 -0.451,7.518 1.047,7.518 0.452,0 5.304,-1.392 10.782,-3.094 z m -141.54,15.035 c 0,-0.582 0.45,-0.781 1,-0.441 0.55,0.34 1,0.816 1,1.059 0,0.243 -0.45,0.441 -1,0.441 -0.55,0 -1,-0.477 -1,-1.059 z m -49.75,-0.647 c -2.106,-0.405 -2.25,-0.937 -2.25,-8.305 0,-4.329 0.337,-8.079 0.75,-8.332 0.849,-0.523 17.806,1.067 20.496,1.921 0.965,0.306 1.754,1.111 1.754,1.789 0,2.685 2.184,3.589 5.066,2.099 2.173,-1.124 4.302,-1.239 9.892,-0.537 6.158,0.773 10.877,2.57 9.738,3.708 -0.193,0.194 -7.417,2.154 -16.051,4.358 -14.822,3.781 -22.449,4.637 -29.395,3.299 z m 5.75,-5.294 c 0,-0.55 -0.675,-1 -1.5,-1 -0.825,0 -1.5,0.45 -1.5,1 0,0.55 0.675,1 1.5,1 0.825,0 1.5,-0.45 1.5,-1 z m 1.64,-7.693 c -1.201,-1.201 -2.932,1.495 -2.167,3.376 0.678,1.667 0.825,1.631 1.79,-0.443 0.578,-1.242 0.748,-2.562 0.377,-2.933 z m 42.86,6.693 c -0.34,-0.55 0.06,-1 0.882,-1 0.825,0 1.778,0.45 2.118,1 0.34,0.55 -0.06,1 -0.882,1 -0.825,0 -1.778,-0.45 -2.118,-1 z"
       style="fill:#a98a63" />
    <path
       inkscape:connector-curvature="0"
       id="path3004"
       d="m 344.99,592.26 c -0.789,-1.277 2.524,-1.277 4.5,0 1.173,0.758 0.914,0.973 -1.191,0.985 -1.48,0 -2.969,-0.435 -3.309,-0.985 z m 13.941,-0.532 c 1.068,-0.807 2.868,-1.452 4,-1.433 1.882,0.03 1.844,0.159 -0.441,1.465 -3.45,1.972 -6.176,1.948 -3.559,-0.03 z m 8.04,-5.089 c 1.29,-3.754 1.338,-3.78 17.156,-9.322 8.725,-3.056 16.425,-5.921 17.113,-6.366 1.512,-0.979 1.721,-12.282 0.244,-13.195 -0.553,-0.342 -2.466,-0.153 -4.25,0.42 -1.784,0.572 -7.744,2.414 -13.244,4.093 -17.095,5.219 -18.5,5.866 -18.5,8.515 0,2.904 -1.348,3.846 -3.709,2.594 -4.106,-2.178 -9.207,-4.118 -10.826,-4.118 -0.953,0 -3.471,-0.521 -5.596,-1.157 -3.323,-0.996 -4.134,-0.913 -5.799,0.594 -2.18,1.973 -7.339,1.424 -10.189,-1.085 -1.095,-0.963 -5.14,-1.593 -12.5,-1.946 -8.276,-0.397 -11.839,-1.015 -14.881,-2.582 -2.42,-1.246 -7.042,-2.322 -11.704,-2.724 -5.831,-0.504 -8.263,-1.18 -10,-2.782 -2.414,-2.226 -5.473,-2.587 -18.228,-2.15 -1.91,0.07 -3.56,-0.675 -4.734,-2.124 -1.522,-1.88 -2.412,-2.122 -5.743,-1.559 -2.301,0.388 -4.801,0.205 -6.008,-0.441 -2.051,-1.097 -2.067,-1.535 -2.047,-55.034 0.01,-33.804 0.383,-54.151 0.992,-54.528 0.535,-0.33 0.972,-1.725 0.972,-3.1 0,-1.412 -0.435,-2.231 -1,-1.882 -0.616,0.38 -1,-1.303 -1,-4.382 0,-2.75 0.476,-5.294 1.057,-5.653 1.431,-0.885 6.161,0.373 5.49,1.46 -0.848,1.372 2.153,2.084 8.285,1.965 l 5.668,-0.109 -4.442,-0.871 c -7.567,-1.484 -6.913,-1.947 1.942,-1.373 11.058,0.717 13,1.25 13,3.571 0,2.256 1.548,2.513 2.362,0.392 0.629,-1.641 8.492,-2.01 12.138,-0.569 1.618,0.639 1.174,0.932 -2.319,1.529 -3.07,0.525 -4.57,1.361 -5.187,2.89 l -0.867,2.15 -0.06,-2.25 c -0.04,-1.238 -0.565,-2.25 -1.18,-2.25 -0.694,0 -0.857,0.851 -0.431,2.25 0.377,1.237 0.924,4.837 1.215,8 0.449,4.87 0.28,5.75 -1.104,5.75 -1.303,0 -1.425,-0.39 -0.602,-1.928 2.129,-3.977 0.405,-5.078 -7.818,-4.993 -4.204,0.04 -7.08,0.306 -6.393,0.583 0.831,0.336 1.25,2.824 1.25,7.421 l 0,6.917 -4,0 c -2.889,0 -4,0.417 -4,1.5 0,1.08 -1.105,1.5 -3.941,1.5 -4.65,0 -4.926,0.336 -4.31,5.25 0.356,2.845 0.926,3.75 2.36,3.75 1.244,0 1.891,-0.707 1.891,-2.066 0,-4.401 1.782,-5.934 6.895,-5.934 l 4.825,0 0.589,5.709 c 0.6,5.813 -0.276,8.291 -2.931,8.291 -0.758,0 -1.378,-0.45 -1.378,-1 0,-0.55 -0.9,-1 -2,-1 -2.041,0 -2.664,2.696 -2.08,8.992 0.272,2.929 -0.08,2.568 3.33,3.386 2.683,0.644 2.75,0.553 2.75,-3.737 0,-4.731 0.948,-5.994 5.272,-7.028 2.358,-0.563 2.619,-0.947 1.75,-2.572 -0.562,-1.05 -1.022,-3.964 -1.022,-6.475 0,-4.552 0.01,-4.566 3.5,-4.566 3.467,0 3.5,0.04 3.5,4.378 0,2.671 -0.585,4.862 -1.5,5.622 -2.15,1.784 -1.851,2.995 0.75,3.032 3.585,0.05 6.133,2.461 4.911,4.645 -0.561,1.003 -1.39,1.701 -1.841,1.552 -0.451,-0.149 -0.96,1.314 -1.13,3.25 -0.171,1.937 -0.76,3.521 -1.309,3.521 -0.55,0 -0.76,0.387 -0.468,0.859 0.292,0.472 3.482,1.161 7.088,1.531 3.607,0.369 7.782,0.917 9.278,1.217 l 2.721,0.544 -0.292,-29.452 c -0.256,-25.793 -0.101,-29.526 1.25,-30.045 3.823,-1.467 4.538,0.175 4.658,10.703 0.06,5.579 0.323,9.35 0.576,8.381 0.969,-3.716 2.308,-0.339 2.308,5.821 0,7.451 -1.71,8.728 -2.265,1.691 -0.206,-2.613 -0.456,3.237 -0.555,13 -0.14,13.833 0.102,17.75 1.098,17.75 0.702,0 2.048,0.9 2.99,2 0.942,1.1 2.137,2 2.655,2 0.518,0 1.228,-0.9 1.577,-2 1.018,-3.207 3.139,-2.235 2.633,1.207 -0.119,0.805 6.419,2.779 9.232,2.787 1.776,0.01 1.784,-0.117 0.17,-2.581 -0.932,-1.423 -1.511,-2.771 -1.286,-2.995 0.225,-0.225 2.527,-0.7 5.116,-1.055 4.022,-0.551 5.054,-0.318 7.097,1.601 1.314,1.235 2.903,1.928 3.531,1.541 1.375,-0.85 4.131,2.483 3.51,4.245 -0.242,0.687 0.108,1.259 0.778,1.27 0.671,0.01 4.814,0.653 9.208,1.427 4.394,0.774 8.143,1.254 8.331,1.066 0.188,-0.188 0.289,-14.07 0.224,-30.848 -0.11,-28.476 0,-30.544 1.669,-31.071 0.983,-0.31 11.012,-2.16 22.287,-4.112 11.275,-1.952 29.725,-5.144 41,-7.093 24.994,-4.321 50.713,-8.323 53.73,-8.361 l 2.23,-0.03 0,54.896 c 0,53.152 -0.07,54.976 -1.98,57.408 -1.13,1.436 -1.976,4.04 -1.976,6.081 0,2.703 -0.606,3.966 -2.5,5.207 -3.249,2.129 -3.58,7.892 -0.5,8.698 3.552,0.929 2.259,3.669 -2.75,5.827 -6.097,2.627 -23.931,8.556 -41.75,13.881 -7.7,2.301 -14.45,4.534 -15,4.962 -0.55,0.429 -2.8,1.334 -5,2.011 -2.2,0.678 -8.275,2.7 -13.5,4.494 -5.225,1.795 -12.957,4.226 -17.182,5.404 -4.226,1.178 -8.346,2.396 -9.157,2.708 -1.276,0.489 -1.301,0.06 -0.18,-3.198 z M 363.99,570.26 c 0.34,-0.55 -0.08,-1 -0.941,-1 -0.857,0 -1.559,0.45 -1.559,1 0,0.55 0.423,1 0.941,1 0.518,0 1.219,-0.45 1.559,-1 z m 59.673,-4.481 c 0.622,-1.364 1.85,-2.686 2.729,-2.937 14.463,-4.136 25.149,-7.981 26.585,-9.568 1.36,-1.503 1.657,-3.041 1.263,-6.539 -0.283,-2.516 -0.813,-4.872 -1.178,-5.236 -0.364,-0.364 -3.679,0.323 -7.367,1.527 -3.688,1.205 -9.032,2.84 -11.876,3.635 -8.293,2.317 -8.97,2.922 -9.646,8.626 -0.333,2.811 -1.517,6.586 -2.631,8.389 -1.899,3.073 -1.855,4.584 0.136,4.584 0.47,0 1.364,-1.116 1.985,-2.481 z M 264.49,513.26 c 0,-0.55 -0.45,-1 -1,-1 -0.55,0 -1,0.45 -1,1 0,0.55 0.45,1 1,1 0.55,0 1,-0.45 1,-1 z m 79.297,-1.159 c 1.191,-0.637 3.028,-2.255 4.082,-3.595 1.55,-1.972 2.503,-2.32 4.987,-1.823 1.715,0.343 2.644,0.24 2.103,-0.234 -0.861,-0.753 -5.339,-1.71 -17.723,-3.784 -3.706,-0.621 -3.749,-0.59 -3.419,2.426 0.381,3.486 2.186,6.021 5.138,7.217 2.697,1.093 2.377,1.107 4.832,-0.207 z m -56.161,-3.427 c 2.253,-1.422 4.32,-3.442 4.594,-4.489 0.273,-1.046 0.896,-1.656 1.384,-1.355 0.487,0.302 0.886,-0.829 0.886,-2.511 0,-2.815 -0.272,-3.059 -3.418,-3.059 -1.88,0 -4.13,-0.273 -5,-0.607 -1.302,-0.499 -1.582,0.21 -1.582,4 0,3.261 -0.405,4.607 -1.386,4.607 -0.777,0 -1.581,1.321 -1.827,3 -0.555,3.776 0.876,3.869 6.349,0.414 z m -29.329,-3.164 c 0.21,-2.894 0.768,-4.25 1.75,-4.25 0.839,0 1.443,-0.963 1.443,-2.3 0,-1.265 0.501,-2.801 1.113,-3.413 1.419,-1.419 0.268,-3.37 -1.572,-2.664 -0.768,0.294 -1.229,1.4 -1.026,2.456 0.227,1.178 -0.188,1.921 -1.072,1.921 -0.919,0 -1.443,1.032 -1.443,2.839 0,2.059 -0.688,3.153 -2.5,3.979 -3.955,1.802 -3.19,6.568 0.959,5.974 1.629,-0.233 2.103,-1.15 2.348,-4.542 z m 64.178,0.5 c -0.01,-1.787 -0.388,-3.837 -0.842,-4.554 -1.141,-1.798 -13.148,-3.437 -14.847,-2.026 -0.93,0.771 -1.296,0.758 -1.296,-0.05 0,-1.796 -2.706,-1.294 -3.384,0.628 -0.339,0.963 -0.9,2.375 -1.246,3.139 -0.449,0.992 -0.235,1.142 0.75,0.525 1.663,-1.041 4.887,-0.624 6.706,0.869 0.979,0.803 1.558,0.714 2.209,-0.34 0.634,-1.025 0.259,-1.675 -1.326,-2.3 -1.233,-0.486 -1.687,-1.068 -1.027,-1.318 1.622,-0.613 7.516,2.545 6.828,3.658 -0.775,1.254 3.484,5.017 5.679,5.017 1.38,0 1.807,-0.774 1.796,-3.25 z m 12.472,-9.681 c 0.317,-0.512 0.118,-1.214 -0.441,-1.559 -0.559,-0.345 -1.016,0.07 -1.016,0.931 0,1.756 0.6,2.015 1.457,0.628 z m -82.039,-13.676 c 2.266,-0.87 1.955,-3.393 -0.418,-3.393 -1.333,0 -2,0.667 -2,2 0,2.202 0.124,2.273 2.418,1.393 z M 250.49,443.17 c 0,-1.855 -2.51,-3.733 -3.571,-2.672 -0.267,0.266 -0.02,1.699 0.541,3.183 1.122,2.953 3.03,2.63 3.03,-0.511 z m 11.5,-1.91 c 0.35,-0.567 -0.49,-1 -1.941,-1 -1.407,0 -2.559,0.45 -2.559,1 0,0.55 0.873,1 1.941,1 1.067,0 2.219,-0.45 2.559,-1 z m 15.769,-0.656 c -0.677,-0.274 -2.027,-0.291 -3,-0.04 -0.973,0.254 -0.419,0.478 1.231,0.498 1.65,0.02 2.446,-0.187 1.769,-0.461 z m -1.269,-2.344 c 0,-0.55 -0.45,-1 -1,-1 -0.55,0 -1,0.45 -1,1 0,0.55 0.45,1 1,1 0.55,0 1,-0.45 1,-1 z m 5.5,-6 c 0.34,-0.55 -0.11,-1 -1,-1 -0.89,0 -1.34,0.45 -1,1 0.34,0.55 0.79,1 1,1 0.21,0 0.66,-0.45 1,-1 z m 16,150 -3,-0.763 3.691,-0.119 c 2.03,-0.06 3.969,0.332 4.309,0.882 0.693,1.121 -0.593,1.121 -5,0 z m 9.075,-2.75 c 0.32,-1.675 -0.226,-4.2 -1.397,-6.461 -1.058,-2.041 -1.68,-3.954 -1.384,-4.25 1.123,-1.122 7.904,-0.478 9.765,0.928 1.25,0.944 3.095,1.261 5.183,0.89 1.783,-0.317 6.408,0.199 10.277,1.148 5.48,1.343 6.802,2.006 5.978,2.999 -0.582,0.701 -2.057,1.499 -3.278,1.773 -1.22,0.274 -6.612,1.673 -11.981,3.11 -12.738,3.409 -13.838,3.398 -13.163,-0.137 z m -53.322,-7.644 c 1.298,-0.985 1.591,-2.134 1.132,-4.431 -0.341,-1.706 -0.334,-4.243 0.02,-5.638 0.574,-2.29 1.12,-2.537 5.598,-2.537 4.459,0 5.025,0.254 5.589,2.5 0.686,2.733 2.608,3.136 6.997,1.467 4.441,-1.688 18.275,0.506 16.21,2.571 -1.408,1.407 -27.601,7.415 -32.296,7.407 -4.374,0 -4.78,-0.175 -3.247,-1.339 z m -9.253,-0.606 c 0,-0.55 0.648,-1 1.441,-1 0.792,0 1.719,0.45 2.059,1 0.34,0.55 -0.309,1 -1.441,1 -1.132,0 -2.059,-0.45 -2.059,-1 z m 45,-84 c 0,-0.55 0.9,-1 2,-1 1.1,0 2,0.45 2,1 0,0.55 -0.9,1 -2,1 -1.1,0 -2,-0.45 -2,-1 z m 12.079,-4.372 c -0.07,-3.386 0.116,-3.711 1.468,-2.589 1.088,0.903 1.211,1.492 0.415,1.984 -0.623,0.386 -1.061,0.999 -0.972,1.364 0.09,0.365 -0.06,1.214 -0.336,1.888 -0.273,0.674 -0.532,-0.518 -0.575,-2.647 z m 53.173,-32.128 c 0.01,-2.2 0.216,-2.982 0.455,-1.738 0.239,1.244 0.23,3.044 -0.02,4 -0.25,0.956 -0.446,-0.06 -0.435,-2.262 z m -69.252,-6.874 0,-5.373 3.25,0.66 c 2.411,0.49 3.337,1.271 3.589,3.023 0.502,3.497 -1.775,7.064 -4.508,7.064 -2.152,0 -2.331,-0.412 -2.331,-5.374 z m 38.245,1.219 c -1.821,-1.821 -1.624,-10.485 0.255,-11.207 0.825,-0.316 2.062,-0.402 2.75,-0.19 0.687,0.212 2.51,0.662 4.051,1 2.684,0.59 2.789,0.835 2.5,5.834 l -0.301,5.218 -4.004,0.295 c -2.249,0.166 -4.551,-0.25 -5.25,-0.95 z"
       style="fill:#a5845d" />
    <path
       inkscape:connector-curvature="0"
       id="path3002"
       d="m 367.822,586.682 c -0.992,-2.583 1.427,-3.898 17.21,-9.35 8.273,-2.858 15.661,-5.579 16.417,-6.046 0.927,-0.574 1.374,-2.87 1.374,-7.059 0,-6.162 0.03,-6.22 3.584,-7.79 3.29,-1.452 3.39,-1.612 1.218,-1.964 -1.301,-0.21 -2.854,0.106 -3.45,0.702 -0.597,0.597 -1.976,1.085 -3.064,1.085 -1.088,0 -3.361,0.45 -5.05,1 -14.644,4.769 -18.913,6.005 -20.842,6.034 -1.226,0.02 -3.952,0.849 -6.059,1.846 -2.106,0.997 -4.918,1.604 -6.25,1.35 -2.397,-0.459 -2.422,-0.585 -2.593,-13.097 -0.251,-18.324 -0.684,-44.436 -0.761,-45.848 -0.107,-1.969 -3.131,-3.064 -13.134,-4.756 -11.829,-2.002 -12.97,-2.367 -10.932,-3.491 0.847,-0.467 5.816,-0.157 11.409,0.712 6.048,0.94 10.454,1.191 11.31,0.645 1.157,-0.738 1.387,-6.277 1.315,-31.569 -0.08,-28.564 0.03,-30.711 1.69,-31.21 0.977,-0.294 10.324,-1.945 20.772,-3.669 10.448,-1.723 19.265,-3.299 19.593,-3.502 0.328,-0.203 7.755,-1.503 16.504,-2.89 8.749,-1.387 19.057,-3.206 22.907,-4.042 10.46,-2.271 35.537,-5.608 36.708,-4.885 0.691,0.427 0.789,18.507 0.302,55.752 -0.689,52.677 -0.807,55.214 -2.667,57.24 -1.354,1.474 -1.755,2.882 -1.317,4.626 0.512,2.04 0.04,2.928 -2.539,4.763 -2.847,2.027 -3.125,2.673 -2.747,6.373 0.231,2.265 0.735,4.816 1.12,5.668 0.943,2.087 -2.579,3.68 -23.09,10.452 -17.857,5.895 -22.28,6.64 -22.255,3.748 0.03,-3.233 1.527,-4.185 11.344,-7.207 5.376,-1.654 11.769,-3.891 14.207,-4.969 l 4.434,-1.962 0,-5.997 c 0,-3.298 -0.46,-6.281 -1.022,-6.629 -1.095,-0.677 -10.847,2.177 -12.428,3.637 -0.523,0.482 -1.898,0.877 -3.056,0.877 -1.158,0 -4.86,0.93 -8.226,2.067 -6.088,2.056 -6.118,2.085 -5.576,5.419 0.509,3.138 0.264,3.5 -3.824,5.652 -3.754,1.975 -4.052,2.348 -2.118,2.65 2.6,0.406 2.876,1.87 0.778,4.128 -5.847,6.294 -7.353,8.056 -7.669,8.974 -0.441,1.284 -22.137,8.778 -30.359,10.487 -3.3,0.685 -6.983,1.781 -8.184,2.435 -2.94,1.599 -4.261,1.496 -4.984,-0.39 z M 413.99,553.26 c 0.34,-0.55 0.168,-1 -0.382,-1 -0.55,0 -1.278,0.45 -1.618,1 -0.34,0.55 -0.168,1 0.382,1 0.55,0 1.278,-0.45 1.618,-1 z m -104.958,28.068 c -0.363,-0.587 -0.391,-1.503 -0.06,-2.036 0.329,-0.532 -0.319,-2.866 -1.441,-5.187 -1.122,-2.322 -2.039,-4.361 -2.039,-4.533 0,-0.995 7.811,-0.01 9.388,1.181 1.399,1.059 2.393,1.159 3.836,0.387 2.159,-1.156 16.776,1.552 16.776,3.108 0,1.018 -6.98,3.388 -16.187,5.496 -3.678,0.842 -7.345,1.783 -8.149,2.091 -0.804,0.309 -1.759,0.08 -2.122,-0.507 z m -50.774,-8.633 c -0.369,-0.369 -0.411,-1.968 -0.09,-3.553 0.453,-2.266 0.215,-2.882 -1.113,-2.882 -1.302,0 -1.616,-0.743 -1.375,-3.25 0.303,-3.137 0.47,-3.25 4.8,-3.25 3.937,0 4.653,0.346 5.84,2.823 0.995,2.076 1.792,2.627 3.013,2.084 2.761,-1.228 16.545,-1.567 18.161,-0.446 2.298,1.592 0.282,2.459 -12.884,5.542 -16.085,3.767 -15.6,3.68 -16.348,2.932 z m 74.482,-3.926 c -1.788,-0.777 -3.25,-1.884 -3.25,-2.461 0,-0.576 -1.013,-1.055 -2.25,-1.063 -3.99,-0.03 -4.87,-1.256 -3.981,-5.557 0.623,-3.013 1.34,-4.004 3.077,-4.255 2.937,-0.424 4.957,1.312 5.345,4.592 0.242,2.056 1.062,2.81 3.809,3.505 4.704,1.191 5.256,1.919 3.434,4.521 -1.799,2.568 -1.901,2.58 -6.184,0.718 z m 24.75,0.491 c 0,-0.55 0.45,-1 1,-1 0.55,0 1,0.45 1,1 0,0.55 -0.45,1 -1,1 -0.55,0 -1,-0.45 -1,-1 z m -49.5,-4.9 c -2.2,-0.33 -5.295,-1.477 -6.879,-2.549 -2.215,-1.501 -4.72,-1.974 -10.869,-2.053 -6.604,-0.08 -8.23,-0.431 -9.371,-1.992 -0.76,-1.038 -1.381,-2.252 -1.381,-2.697 0,-1.205 3.996,-0.901 8.29,0.631 2.084,0.743 4.646,1.128 5.693,0.854 1.804,-0.472 1.918,-1.957 2.21,-28.646 0.169,-15.481 -0.01,-28.872 -0.403,-29.757 -0.513,-1.163 -3.808,-2.107 -11.897,-3.408 -10.407,-1.674 -11.273,-1.684 -12.401,-0.142 -1.613,2.206 -3.188,2.094 -4.48,-0.318 -1.643,-3.071 -4.486,-4.111 -13.249,-4.845 -5.071,-0.424 -8.256,-1.145 -8.516,-1.928 -0.705,-2.129 2.766,-2.614 6.378,-0.892 4.008,1.912 13.431,2.186 15.175,0.442 0.66,-0.66 1.2,-2.718 1.2,-4.573 0,-2.673 0.364,-3.305 1.75,-3.042 1.225,0.232 1.843,1.46 2.061,4.091 0.212,2.56 1.009,4.195 2.5,5.128 2.081,1.303 14.983,3.596 20.23,3.596 l 2.459,0 0,-22.5 c 0,-14.041 0.369,-22.5 0.981,-22.5 0.604,0 1.084,8.556 1.25,22.25 l 0.269,22.25 3.25,1.43 c 4.064,1.789 4.168,3.07 0.25,3.07 l -3,0 0,29.878 c 0,22.713 0.3,30.112 1.25,30.856 0.687,0.538 4.14,1.603 7.673,2.367 6.125,1.324 9.077,2.941 9.077,4.97 0,0.991 -3.024,1 -9.5,0.03 z m -49.396,-10.014 c -2.323,-1.472 -0.475,-4.086 2.889,-4.086 2.313,0 3.28,-0.589 3.976,-2.42 1.233,-3.242 4.161,-2.695 5.389,1.007 0.532,1.602 1.681,3.506 2.554,4.231 1.349,1.12 0.958,1.233 -2.602,0.748 -2.37,-0.323 -4.458,-0.135 -4.809,0.432 -0.762,1.233 -5.499,1.29 -7.397,0.09 z M 245.99,550.26 c -0.362,-0.585 0.676,-1 2.5,-1 1.824,0 2.861,0.415 2.5,1 -0.34,0.55 -1.465,1 -2.5,1 -1.035,0 -2.16,-0.45 -2.5,-1 z m 78.423,-43.687 c -0.04,-0.447 -0.188,-2.163 -0.324,-3.813 -0.136,-1.65 -0.386,-3.45 -0.557,-4 -0.17,-0.55 0.04,-2.487 0.46,-4.303 0.689,-2.958 1.093,-3.272 3.862,-3 2.762,0.271 3.165,0.735 3.778,4.355 0.377,2.229 0.371,5.604 -0.01,7.5 -0.603,2.973 -1.142,3.491 -3.914,3.761 -1.768,0.173 -3.25,-0.05 -3.292,-0.5 z m 1.765,-64.105 c -0.928,-1.026 -1.688,-3.293 -1.688,-5.037 0,-2.626 0.386,-3.168 2.25,-3.156 3.797,0.03 4.913,1.389 4.569,5.578 -0.366,4.458 -2.485,5.538 -5.131,2.615 z"
       style="fill:#906f49" />
    <path
       inkscape:connector-curvature="0"
       id="path3000"
       d="m 368.675,585.536 c 0.238,-1.234 4.791,-3.316 16.002,-7.319 8.619,-3.076 16.377,-6.181 17.242,-6.898 1.085,-0.9 1.574,-3.045 1.581,-6.931 l 0,-5.628 8.248,-3.15 c 10.869,-4.152 12.233,-4.358 12.233,-1.85 0,1.572 -1.333,2.428 -6.235,4 -5.675,1.82 -8.494,4.5 -4.734,4.5 2.718,0 2.844,2.995 0.245,5.81 -1.365,1.479 -2.741,3.43 -3.057,4.334 -0.619,1.77 -13.075,6.232 -20.697,7.414 -2.463,0.382 -5.388,1.269 -6.5,1.97 -1.112,0.702 -3.597,1.602 -5.522,2.002 -1.925,0.399 -4.388,1.343 -5.473,2.098 -2.649,1.843 -3.742,1.728 -3.342,-0.352 z m 41.815,-20.217 c 0,-1.18 -1.95,-2.442 -2.667,-1.726 -0.716,0.717 0.546,2.667 1.726,2.667 0.518,0 0.941,-0.423 0.941,-0.941 z m -97.257,12.508 c 0.273,-1.432 0.03,-2.567 -0.555,-2.567 -1.523,0 -4.188,-2.909 -4.188,-4.571 0,-1.903 4.401,-1.856 5.994,0.06 0.884,1.065 2.308,1.322 4.968,0.897 4.141,-0.662 15.038,1.25 15.038,2.639 0,0.981 -11.173,4.44 -17.624,5.455 -4.012,0.632 -4.111,0.58 -3.633,-1.917 z m -53.743,-6.544 c 0,-0.537 1.11,-1.704 2.466,-2.593 l 2.467,-1.616 -2.946,-2.479 c -1.62,-1.363 -3.464,-2.158 -4.096,-1.767 -0.708,0.437 -0.974,0.176 -0.693,-0.679 0.267,-0.81 2.165,-1.516 4.553,-1.693 3.622,-0.268 4.134,-0.04 4.422,2 0.286,2.016 0.827,2.274 4.327,2.062 15.224,-0.92 19.18,-0.604 17.203,1.372 -0.786,0.786 -23.518,6.37 -25.932,6.37 -0.974,0 -1.771,-0.44 -1.771,-0.977 z m 73.25,-3.054 c -3.052,-1.227 -2.936,-3.969 0.168,-3.969 3.729,0 5.582,1.032 5.582,3.107 0,2.057 -2.022,2.36 -5.75,0.862 z m 93.306,-0.879 c -1.356,-2.193 1.08,-3.984 8.252,-6.07 20.489,-5.959 20.603,-6.035 20.654,-13.664 0.04,-5.371 0.188,-5.694 3.522,-7.485 2.316,-1.243 5.503,-1.865 9.5,-1.854 l 6.016,0.02 -3.257,2.085 c -3.63,2.325 -4.369,4.323 -3.997,10.813 0.313,5.455 0.791,5.178 -20.753,12 -16.434,5.203 -18.965,5.731 -19.937,4.158 z M 303.47,562.736 c -0.696,-0.838 -1.088,-1.696 -0.873,-1.905 1.666,-1.616 10.1,-0.231 11.915,1.955 1.052,1.268 0.455,1.474 -4.277,1.474 -3.708,0 -5.912,-0.497 -6.765,-1.524 z m -21.445,-4.42 c -0.359,-0.581 -0.409,-1.451 -0.111,-1.933 0.697,-1.127 6.614,0.06 6.877,1.377 0.272,1.365 -5.95,1.876 -6.766,0.556 z m 14.465,-0.06 c 0,-0.55 0.45,-1 1,-1 0.55,0 1,0.45 1,1 0,0.55 -0.45,1 -1,1 -0.55,0 -1,-0.45 -1,-1 z m -36.75,-3.662 c -2.138,-0.863 -1.393,-3.339 1,-3.323 2.975,0.02 5.177,1.485 4.319,2.873 -0.705,1.141 -3.103,1.344 -5.319,0.45 z m 164.264,-9.55 c -1.904,-1.104 -1.874,-1.197 0.741,-2.266 l 2.726,-1.114 -4.285,-3.582 c -3.257,-2.723 -5.593,-3.76 -9.74,-4.324 -3.001,-0.408 -7.661,-1.855 -10.355,-3.214 -4.02,-2.029 -5.33,-2.277 -7.297,-1.38 -1.319,0.6 -4.817,1.092 -7.774,1.092 -4.325,0 -5.978,-0.506 -8.453,-2.589 -1.692,-1.424 -3.077,-3.449 -3.077,-4.5 0,-1.457 -0.713,-1.911 -3,-1.911 -4.016,0 -3.887,-2.063 0.426,-6.765 l 3.426,-3.735 10.813,0 10.814,0 0.866,-5.436 c 0.749,-4.696 0.622,-5.615 -0.93,-6.75 -2.518,-1.841 -3.313,-1.639 -2.705,0.686 0.293,1.118 0.03,2 -0.593,2 -0.615,0 -1.117,-0.731 -1.117,-1.625 0,-1.31 -0.629,-1.489 -3.25,-0.924 -1.788,0.385 -6.175,1.099 -9.75,1.587 -3.575,0.487 -8.75,1.387 -11.5,2 -8.747,1.947 -11.247,2.18 -11.91,1.108 -0.386,-0.625 0.874,-1.295 3.132,-1.667 2.078,-0.342 6.703,-1.662 10.278,-2.933 3.575,-1.27 9.425,-3.054 13,-3.964 14.018,-3.567 13.545,-3.355 13.779,-6.184 0.148,-1.782 -0.754,-3.639 -2.77,-5.699 -1.643,-1.682 -3.267,-3.989 -3.609,-5.128 -0.341,-1.139 -3.751,-5.103 -7.577,-8.81 -6.732,-6.521 -10.331,-12.761 -7.36,-12.761 1.906,0 2.781,-2.969 1.068,-3.627 -0.789,-0.302 -1.907,-0.259 -2.483,0.1 -0.593,0.367 -1.048,-0.193 -1.048,-1.289 0,-2.4 -2.636,-4.681 -5.412,-4.681 -1.805,0 -2.055,-0.534 -1.846,-3.942 0.317,-5.144 1.598,-6.352 3.893,-3.671 2.334,2.725 3.158,2.662 4.529,-0.347 0.855,-1.876 2.333,-2.711 6.228,-3.516 18.947,-3.914 27.111,-5.454 42.608,-8.037 9.625,-1.603 18.4,-3.177 19.5,-3.496 1.1,-0.32 8.881,-1.597 17.291,-2.839 11.896,-1.756 15.515,-1.988 16.298,-1.045 0.642,0.774 0.865,10.761 0.615,27.553 -0.216,14.487 -0.445,38.59 -0.508,53.562 l -0.116,27.222 -2.6,2.26 c -2.726,2.371 -11.885,5.718 -24.418,8.924 -4.091,1.047 -8.201,2.593 -9.133,3.436 -1.04,0.941 -2.608,1.304 -4.061,0.94 -1.303,-0.327 -4.337,0.102 -6.744,0.951 -2.406,0.85 -4.431,1.531 -4.5,1.515 -0.07,-0.02 -1.018,-0.549 -2.11,-1.182 z M 327.24,499.499 c -0.963,-0.214 -1.75,-0.807 -1.75,-1.316 0,-1.172 1.084,-1.159 2.971,0.03 1.796,1.136 1.154,1.81 -1.221,1.282 z m -31.169,-3.108 c -0.295,-0.477 -2.459,-1.228 -4.809,-1.668 l -4.272,-0.8 5.5,-0.682 c 5.86,-0.728 7.634,-0.07 6.664,2.452 -0.657,1.713 -2.235,2.07 -3.083,0.698 z m -28.914,-4.798 c -2.5,-2.499 2.718,-3.265 5.892,-0.865 1.824,1.38 1.725,1.47 -1.642,1.5 -1.971,0.02 -3.884,-0.268 -4.25,-0.635 z"
       style="fill:#84633b" />
    <path
       inkscape:connector-curvature="0"
       id="path2998"
       d="m 314.452,576.659 c -0.544,-1.43 -1.996,-3.44 -3.226,-4.466 l -2.236,-1.866 2.191,-0.03 c 1.205,-0.02 2.494,0.457 2.865,1.057 0.406,0.658 2.02,0.837 4.072,0.452 4.248,-0.797 15.582,1.328 15.082,2.828 -0.383,1.149 -11.577,4.447 -15.485,4.563 -1.563,0.05 -2.584,-0.746 -3.263,-2.534 z m 89.591,-5.314 c -0.322,-0.521 -0.159,-1.21 0.362,-1.532 0.521,-0.322 1.21,-0.159 1.532,0.362 0.322,0.521 0.159,1.21 -0.362,1.532 -0.521,0.322 -1.21,0.159 -1.532,-0.362 z M 264.49,569.267 c 1.375,-1.072 4.493,-2.637 6.928,-3.478 4.738,-1.636 16.072,-2.102 16.072,-0.661 0,0.989 -8.652,3.507 -17.434,5.074 -7.965,1.42 -8.478,1.334 -5.566,-0.935 z m 69.25,-1.042 c -3.387,-1.356 -2.746,-3.139 1,-2.778 1.99,0.191 3.25,0.862 3.25,1.73 0,1.825 -1.429,2.178 -4.25,1.048 z m 93.978,-3.149 c 0.871,-2.613 15.772,-6.218 15.772,-3.816 0,0.55 -0.626,1 -1.391,1 -0.765,0 -3.352,0.89 -5.75,1.978 -4.909,2.228 -9.234,2.647 -8.631,0.838 z m -165.272,-1.369 c -0.903,-1.089 -0.961,-1.842 -0.201,-2.602 1.282,-1.282 3.245,-0.28 3.245,1.655 0,2.137 -1.635,2.645 -3.044,0.947 z m 46.044,-0.132 c -4.339,-0.717 -5.413,-1.302 -4.346,-2.369 1.277,-1.277 8.558,0.189 9.106,1.833 0.409,1.229 -0.17,1.294 -4.76,0.536 z m 96,-3.346 c 0,-0.533 0.675,-0.969 1.5,-0.969 0.825,0 1.5,0.177 1.5,0.393 0,0.216 -0.675,0.652 -1.5,0.969 -0.825,0.316 -1.5,0.139 -1.5,-0.393 z m 42,-0.969 c 0,-0.55 1.04,-1 2.311,-1 4.36,0 6.689,-3.432 6.689,-9.854 0,-5.627 0.09,-5.819 3.534,-7.461 3.792,-1.808 8.023,-2.211 8.867,-0.844 0.286,0.462 -1.478,2.824 -3.92,5.25 -5.332,5.294 -5.822,7.909 -1.481,7.909 3.251,0 3.826,1.07 1.576,2.937 -0.867,0.72 -2.761,0.931 -4.842,0.541 -2.529,-0.475 -4.303,-0.101 -6.826,1.437 -3.7,2.256 -5.908,2.661 -5.908,1.085 z m -162.75,-0.662 c -0.688,-0.278 -1.25,-0.948 -1.25,-1.491 0,-1.407 4.261,-0.598 4.755,0.903 0.414,1.257 -1.183,1.525 -3.505,0.588 z m 132.25,-3.393 c 4.32,-2.044 7.5,-2.486 7.5,-1.043 0,1.204 -5.645,3.118 -8.899,3.017 -2.353,-0.07 -2.22,-0.261 1.399,-1.974 z m -154.75,-0.694 c -2.646,-0.601 -2.096,-2.251 0.75,-2.251 1.375,0 2.5,0.423 2.5,0.941 0,1.303 -1.182,1.779 -3.25,1.31 z M 473.99,523.46 c -1.1,-0.185 -3.35,-0.929 -5,-1.653 -1.65,-0.724 -5.13,-1.62 -7.733,-1.991 -2.603,-0.37 -5.078,-1.256 -5.5,-1.969 -0.422,-0.712 -1.892,-1.867 -3.267,-2.566 -3.922,-1.994 -7,-5.192 -7,-7.274 0,-1.048 -2.296,-4.545 -5.102,-7.771 -2.981,-3.427 -5.164,-6.929 -5.25,-8.421 -0.124,-2.136 -0.639,-2.555 -3.148,-2.564 -3.252,-0.01 -21.574,3.11 -33.29,5.669 -8.85,1.933 -10.623,1.159 -2.534,-1.106 3.203,-0.897 6.724,-2.044 7.824,-2.548 1.1,-0.504 7.85,-2.558 15,-4.564 7.15,-2.006 13.638,-3.841 14.417,-4.077 1.05,-0.319 1.126,-0.722 0.293,-1.555 -0.834,-0.834 -1.555,-0.769 -2.782,0.25 -1.44,1.195 -1.905,1.069 -3.543,-0.953 -1.037,-1.281 -1.885,-3.404 -1.885,-4.718 0,-1.314 -0.417,-2.389 -0.927,-2.389 -0.509,0 -2.289,-2.363 -3.954,-5.25 -1.665,-2.888 -4.554,-6.452 -6.419,-7.92 -3.242,-2.551 -3.421,-3.041 -4.038,-11 -0.356,-4.582 -1.085,-9.85 -1.621,-11.708 -1.686,-5.843 -0.599,-6.536 14.153,-9.027 7.318,-1.235 15.106,-2.696 17.306,-3.246 4.412,-1.103 32.97,-5.743 35.747,-5.808 1.637,-0.04 1.74,2.636 1.641,42.709 -0.06,23.512 -0.393,47.033 -0.746,52.268 -0.593,8.794 -0.794,9.493 -2.642,9.182 z M 296.087,495.416 c -0.347,-0.56 -0.142,-1.319 0.453,-1.687 1.538,-0.95 2.53,0.351 1.246,1.635 -0.718,0.718 -1.277,0.735 -1.699,0.05 z"
       style="fill:#6e502b" />
  </g>
</svg>
